<svg xmlns="http://www.w3.org/2000/svg" width="24.7" height="36.3" viewBox="0 0 24.7 36.3"><path fill="#FFF" d="M11.6.1c-.5-.2-1-.1-1.7.3s.6-.1-5.3 3.9c-9.5 6.3-1.4 17.4-1.4 17.4.6.8 1.1 1.4 1.5 1.8 1.1 8.7 14 12.7 14 12.7s-7.8-4.6 1.9-15.5C33.5 6.2 11.6.1 11.6.1z"/><path fill="#ED4B00" d="M19.2 19.8c-5.7 5.6-6.5 10.4-4.6 12.7 0 0-14.5-5.9-6-19.7 1.5-2.3 5.1-5.1 3.2-10.8 0-.1 18.3 5 7.4 17.8z"/><path fill="#F9A01B" d="M10.4 2.1c.3 1.2 1.7 3.7-2.5 8.7-2.3 2.7-3.8 8.5-3.1 9.9 0 0-7.2-9.5 1.1-15.3 5-3.3 4.5-3.3 4.5-3.3z"/></svg>