<?xml version="1.0" encoding="UTF-8" standalone="no"?>
<svg
   xmlns:dc="http://purl.org/dc/elements/1.1/"
   xmlns:cc="http://creativecommons.org/ns#"
   xmlns:rdf="http://www.w3.org/1999/02/22-rdf-syntax-ns#"
   xmlns:svg="http://www.w3.org/2000/svg"
   xmlns="http://www.w3.org/2000/svg"
   xmlns:xlink="http://www.w3.org/1999/xlink"
   xmlns:sodipodi="http://sodipodi.sourceforge.net/DTD/sodipodi-0.dtd"
   xmlns:inkscape="http://www.inkscape.org/namespaces/inkscape"
   version="1.0"
   x="0px"
   y="0px"
   viewBox="0 0 100 100"
   enable-background="new 0 0 100 100"
   xml:space="preserve"
   id="svg3384"
   inkscape:version="0.91 r13725"
   sodipodi:docname="fire.svg"><metadata
     id="metadata3392"><rdf:RDF><cc:Work
         rdf:about=""><dc:format>image/svg+xml</dc:format><dc:type
           rdf:resource="http://purl.org/dc/dcmitype/StillImage" /></cc:Work></rdf:RDF></metadata><defs
     id="defs3390"><linearGradient
       inkscape:collect="always"
       id="linearGradient4216"><stop
         style="stop-color:#ed4b00;stop-opacity:1;"
         offset="0"
         id="stop4204" /><stop
         style="stop-color:#ed4b00;stop-opacity:0;"
         offset="1"
         id="stop4206" /></linearGradient><linearGradient
       inkscape:collect="always"
       xlink:href="#linearGradient4216"
       id="linearGradient4208"
       x1="45.00946"
       y1="65.784668"
       x2="82.724846"
       y2="16.779245"
       gradientUnits="userSpaceOnUse" /></defs><sodipodi:namedview
     pagecolor="#ffffff"
     bordercolor="#666666"
     borderopacity="1"
     objecttolerance="10"
     gridtolerance="10"
     guidetolerance="10"
     inkscape:pageopacity="0"
     inkscape:pageshadow="2"
     inkscape:window-width="1218"
     inkscape:window-height="722"
     id="namedview3388"
     showgrid="false"
     inkscape:zoom="5.53"
     inkscape:cx="23.779385"
     inkscape:cy="50"
     inkscape:window-x="0"
     inkscape:window-y="0"
     inkscape:window-maximized="0"
     inkscape:current-layer="svg3384" /><path
     d="M66.1955261,33.8072357C47.0261955,21.0886726,55.6949348,8.7212353,55.6949348,8.7212353  c-18.6227531,10.7252636-22.744072,27.0900593-18.18256,47.7793198c-6.7203636-5.4408073-7.6854-11.8849182-7.4740906-20.3190536  c-8.5488892,9.1412735-10.0796356,18.8830948-9.5189171,29.2979965  C21.4095306,81.9958115,35.4491425,95.141983,52.077713,94.9988403  c16.1526566-0.1389313,29.8162842-13.5637512,30.5965805-29.8703613  C83.3332367,51.3958473,77.5346451,41.329525,66.1955261,33.8072357z M52.2815323,85.3143158  c-2.9126282,0-5.6862221-0.5698166-8.2427368-1.5714569c-3.350174-1.3127823-6.3019066-3.3975906-8.6528816-6.0406265  c0.1081505-0.0116425,0.2137566-0.0357742,0.3227882-0.0490799c9.7110939-1.1988602,17.5170708-8.5356293,19.3947296-18.0204391  c0.2836876,1.4293022,0.438427,2.9059753,0.438427,4.4184189c0,4.1113358-1.113121,7.9556732-3.0298805,11.278389  c6.7760506-3.9091187,11.3491058-11.2135468,11.3491058-19.5984955c0-5.6878929-2.1129913-10.8691368-5.5771904-14.8440361  c9.5796471,2.6321678,16.6268501,11.3815498,16.6268501,21.7980652  C74.9107437,75.1823273,64.7787552,85.3143158,52.2815323,85.3143158z"
     id="path3386"
     style="fill:url(#linearGradient4208);fill-opacity:1" /></svg>