<?xml version="1.0" encoding="UTF-8" standalone="no"?>
<svg
   xmlns:dc="http://purl.org/dc/elements/1.1/"
   xmlns:cc="http://creativecommons.org/ns#"
   xmlns:rdf="http://www.w3.org/1999/02/22-rdf-syntax-ns#"
   xmlns:svg="http://www.w3.org/2000/svg"
   xmlns="http://www.w3.org/2000/svg"
   xmlns:sodipodi="http://sodipodi.sourceforge.net/DTD/sodipodi-0.dtd"
   xmlns:inkscape="http://www.inkscape.org/namespaces/inkscape"
   width="24.7"
   height="36.3"
   viewBox="0 0 24.7 36.3"
   id="svg2"
   version="1.1"
   inkscape:version="0.91 r13725"
   sodipodi:docname="inactive-fire.svg">
  <metadata
     id="metadata14">
    <rdf:RDF>
      <cc:Work
         rdf:about="">
        <dc:format>image/svg+xml</dc:format>
        <dc:type
           rdf:resource="http://purl.org/dc/dcmitype/StillImage" />
        <dc:title></dc:title>
      </cc:Work>
    </rdf:RDF>
  </metadata>
  <defs
     id="defs12" />
  <sodipodi:namedview
     pagecolor="#ffffff"
     bordercolor="#666666"
     borderopacity="1"
     objecttolerance="10"
     gridtolerance="10"
     guidetolerance="10"
     inkscape:pageopacity="0"
     inkscape:pageshadow="2"
     inkscape:window-width="664"
     inkscape:window-height="480"
     id="namedview10"
     showgrid="false"
     inkscape:zoom="6.5013775"
     inkscape:cx="12.35"
     inkscape:cy="18.15"
     inkscape:window-x="0"
     inkscape:window-y="0"
     inkscape:window-maximized="0"
     inkscape:current-layer="svg2" />
  <path
     fill="#FFF"
     d="M11.6.1c-.5-.2-1-.1-1.7.3s.6-.1-5.3 3.9c-9.5 6.3-1.4 17.4-1.4 17.4.6.8 1.1 1.4 1.5 1.8 1.1 8.7 14 12.7 14 12.7s-7.8-4.6 1.9-15.5C33.5 6.2 11.6.1 11.6.1z"
     id="path4" />
  <path
     fill="#ED4B00"
     d="M19.2 19.8c-5.7 5.6-6.5 10.4-4.6 12.7 0 0-14.5-5.9-6-19.7 1.5-2.3 5.1-5.1 3.2-10.8 0-.1 18.3 5 7.4 17.8z"
     id="path6"
     style="fill:#808080" />
  <path
     fill="#F9A01B"
     d="M10.4 2.1c.3 1.2 1.7 3.7-2.5 8.7-2.3 2.7-3.8 8.5-3.1 9.9 0 0-7.2-9.5 1.1-15.3 5-3.3 4.5-3.3 4.5-3.3z"
     id="path8"
     style="fill:#999999;fill-opacity:0.73426574" />
</svg>
