<?xml version="1.0" encoding="utf-8"?>
<!-- Generator: Adobe Illustrator 16.0.4, SVG Export Plug-In . SVG Version: 6.00 Build 0)  -->
<!DOCTYPE svg PUBLIC "-//W3C//DTD SVG 1.1//EN" "http://www.w3.org/Graphics/SVG/1.1/DTD/svg11.dtd">
<svg version="1.1" xmlns="http://www.w3.org/2000/svg" xmlns:xlink="http://www.w3.org/1999/xlink" x="0px" y="0px" width="224px"
	 height="169px" viewBox="0 0 224 169" enable-background="new 0 0 224 169" xml:space="preserve">
<g id="legend_box">
	<g opacity="0.8">
		<path fill="#FFFFFF" d="M224,163.148c0,2.68-2.172,4.852-4.852,4.852H4.852C2.172,168,0,165.828,0,163.148V4.852
			C0,2.172,2.172,0,4.852,0h214.297C221.828,0,224,2.172,224,4.852V163.148z"/>
	</g>
</g>
<g id="Layer_1">
	
		<path fill="#EEC1AD" stroke="#FF0000" stroke-width="2" stroke-linecap="square" stroke-linejoin="bevel" stroke-miterlimit="10" d="
		M155.479,13.342c-5.856,1.715-12.317,1.635-15.979,5.859c-2.982,3.441,0.914,6.764-0.858,9.924
		c-1.764,3.142-7.873,3.542-9.327,5.709c-3.281,4.887,2.306,5.53,8.466,6.722c-2.991,4.269-11.039,4.232-11.868,9.668
		c12.401,3.496,18.35-1.522,25.82,7.47c5.948-1.02,15.792-1.272,14.059-6.689c10.492-1.888,10.5,4.41,14.609,7.524
		c5.44,4.122,12.871,4.494,21.352,3.99c4.116-5.347,6.093-10.392,8.267-16.166c-5.227-0.834-10.704-2.254-15.349-3.581
		c2.764-1.407,6.242-3.139,7.962-5.188c-5.789,0.446-9.275-4.15-10.698-7.601c7.041-2.083,12.799-4.872,11.811-10.417
		c-4.265,1.072-12.079,3.819-16.81,1.412c-5.059-2.574,0.199-5.153-3.849-7.909c-6.215-4.233-6.231,0.549-11.807,1.04
		c-4.558,0.4-7.521-2.158-13.019-0.861c-0.949-0.134-1.343-0.69-1.855-0.907"/>
	<g>
		<path fill="#4D4D4D" d="M10.585,31.61v3.939h4.717v1.417h-4.717v4.988H8.832V30.193h7.29v1.417H10.585z"/>
		<path fill="#4D4D4D" d="M19.709,31.062c0,0.147-0.03,0.288-0.09,0.422s-0.141,0.251-0.242,0.353
			c-0.101,0.101-0.22,0.18-0.356,0.237c-0.137,0.058-0.279,0.086-0.426,0.086s-0.287-0.028-0.417-0.086
			c-0.131-0.058-0.247-0.137-0.348-0.237c-0.101-0.102-0.18-0.219-0.238-0.353c-0.057-0.134-0.086-0.274-0.086-0.422
			c0-0.152,0.029-0.296,0.086-0.43c0.058-0.134,0.137-0.251,0.238-0.353c0.101-0.101,0.217-0.18,0.348-0.237
			c0.131-0.058,0.27-0.086,0.417-0.086s0.29,0.028,0.426,0.086c0.136,0.058,0.255,0.137,0.356,0.237
			c0.101,0.102,0.182,0.219,0.242,0.353S19.709,30.909,19.709,31.062z M19.406,33.634v8.321h-1.597v-8.321H19.406z"/>
		<path fill="#4D4D4D" d="M23.23,35.23c0.268-0.546,0.59-0.975,0.967-1.285c0.376-0.312,0.83-0.468,1.359-0.468
			c0.18,0,0.351,0.021,0.512,0.062c0.161,0.041,0.301,0.103,0.422,0.185l-0.107,1.204c-0.038,0.147-0.128,0.221-0.27,0.221
			c-0.077,0-0.191-0.015-0.344-0.045c-0.153-0.029-0.316-0.045-0.491-0.045c-0.257,0-0.483,0.037-0.68,0.11
			c-0.197,0.074-0.373,0.184-0.528,0.328c-0.156,0.145-0.293,0.322-0.414,0.532s-0.232,0.449-0.336,0.717v5.209h-1.597v-8.321h0.917
			c0.174,0,0.293,0.031,0.356,0.094c0.063,0.063,0.108,0.174,0.135,0.332L23.23,35.23z"/>
		<path fill="#4D4D4D" d="M34.247,40.768c-0.197,0.229-0.423,0.427-0.68,0.594c-0.256,0.167-0.529,0.302-0.819,0.405
			s-0.588,0.181-0.897,0.229s-0.613,0.073-0.913,0.073c-0.573,0-1.104-0.097-1.593-0.29c-0.489-0.194-0.912-0.479-1.27-0.853
			c-0.357-0.373-0.636-0.838-0.835-1.392c-0.199-0.555-0.299-1.192-0.299-1.913c0-0.578,0.09-1.118,0.271-1.617
			c0.18-0.5,0.438-0.936,0.774-1.307s0.747-0.663,1.232-0.876s1.032-0.319,1.638-0.319c0.508,0,0.976,0.083,1.405,0.249
			c0.429,0.167,0.798,0.408,1.11,0.726c0.311,0.316,0.555,0.707,0.733,1.171c0.177,0.464,0.266,0.994,0.266,1.589
			c0,0.246-0.027,0.411-0.082,0.496c-0.054,0.084-0.155,0.126-0.303,0.126h-5.455c0.017,0.497,0.087,0.93,0.213,1.299
			c0.126,0.368,0.299,0.676,0.521,0.921c0.221,0.246,0.484,0.429,0.79,0.549s0.647,0.181,1.024,0.181
			c0.355,0,0.662-0.041,0.921-0.123s0.483-0.171,0.672-0.267c0.188-0.095,0.347-0.184,0.475-0.266
			c0.128-0.082,0.242-0.123,0.34-0.123c0.131,0,0.232,0.049,0.303,0.147L34.247,40.768z M32.928,36.869
			c0-0.317-0.045-0.609-0.135-0.877c-0.09-0.268-0.223-0.499-0.397-0.696c-0.175-0.196-0.388-0.349-0.639-0.458
			s-0.541-0.164-0.868-0.164c-0.671,0-1.2,0.193-1.585,0.581c-0.385,0.389-0.629,0.926-0.733,1.614H32.928z"/>
		<path fill="#4D4D4D" d="M41.74,34.879c0.175-0.208,0.362-0.397,0.561-0.569s0.414-0.319,0.643-0.442s0.474-0.219,0.733-0.287
			s0.537-0.103,0.832-0.103c0.475,0,0.905,0.094,1.29,0.279c0.385,0.186,0.714,0.458,0.987,0.818s0.484,0.806,0.635,1.335
			c0.15,0.53,0.225,1.139,0.225,1.827c0,0.617-0.083,1.188-0.25,1.716c-0.167,0.526-0.404,0.984-0.713,1.372
			s-0.685,0.691-1.13,0.913c-0.445,0.221-0.946,0.331-1.503,0.331c-0.497,0-0.922-0.081-1.277-0.245s-0.672-0.394-0.95-0.688v3.612
			h-1.597V33.634h0.958c0.224,0,0.363,0.106,0.417,0.319L41.74,34.879z M41.822,39.907c0.262,0.345,0.544,0.585,0.848,0.721
			c0.303,0.137,0.643,0.205,1.02,0.205c0.732,0,1.298-0.264,1.7-0.79c0.401-0.527,0.602-1.296,0.602-2.306
			c0-0.53-0.045-0.981-0.135-1.355c-0.09-0.374-0.221-0.68-0.393-0.918c-0.172-0.237-0.384-0.412-0.635-0.523
			c-0.251-0.112-0.535-0.168-0.852-0.168c-0.464,0-0.867,0.104-1.208,0.311c-0.341,0.208-0.656,0.503-0.946,0.885V39.907z"/>
		<path fill="#4D4D4D" d="M56.271,40.768c-0.197,0.229-0.423,0.427-0.68,0.594c-0.256,0.167-0.529,0.302-0.819,0.405
			s-0.588,0.181-0.897,0.229s-0.613,0.073-0.913,0.073c-0.573,0-1.104-0.097-1.593-0.29c-0.489-0.194-0.912-0.479-1.27-0.853
			c-0.357-0.373-0.636-0.838-0.835-1.392c-0.199-0.555-0.299-1.192-0.299-1.913c0-0.578,0.09-1.118,0.271-1.617
			c0.18-0.5,0.438-0.936,0.774-1.307s0.747-0.663,1.232-0.876s1.032-0.319,1.638-0.319c0.508,0,0.976,0.083,1.405,0.249
			c0.429,0.167,0.798,0.408,1.11,0.726c0.311,0.316,0.555,0.707,0.733,1.171c0.177,0.464,0.266,0.994,0.266,1.589
			c0,0.246-0.027,0.411-0.082,0.496c-0.054,0.084-0.155,0.126-0.303,0.126h-5.455c0.017,0.497,0.087,0.93,0.213,1.299
			c0.126,0.368,0.299,0.676,0.521,0.921c0.221,0.246,0.484,0.429,0.79,0.549s0.647,0.181,1.024,0.181
			c0.355,0,0.662-0.041,0.921-0.123s0.483-0.171,0.672-0.267c0.188-0.095,0.347-0.184,0.475-0.266
			c0.128-0.082,0.242-0.123,0.34-0.123c0.131,0,0.232,0.049,0.303,0.147L56.271,40.768z M54.952,36.869
			c0-0.317-0.045-0.609-0.135-0.877c-0.09-0.268-0.223-0.499-0.397-0.696c-0.175-0.196-0.388-0.349-0.639-0.458
			s-0.541-0.164-0.868-0.164c-0.671,0-1.2,0.193-1.585,0.581c-0.385,0.389-0.629,0.926-0.733,1.614H54.952z"/>
		<path fill="#4D4D4D" d="M59.62,35.23c0.268-0.546,0.59-0.975,0.967-1.285c0.376-0.312,0.83-0.468,1.359-0.468
			c0.18,0,0.351,0.021,0.512,0.062c0.161,0.041,0.301,0.103,0.422,0.185l-0.107,1.204c-0.038,0.147-0.128,0.221-0.27,0.221
			c-0.077,0-0.191-0.015-0.344-0.045c-0.153-0.029-0.316-0.045-0.491-0.045c-0.257,0-0.483,0.037-0.68,0.11
			c-0.197,0.074-0.373,0.184-0.528,0.328c-0.156,0.145-0.293,0.322-0.414,0.532s-0.232,0.449-0.336,0.717v5.209h-1.597v-8.321h0.917
			c0.174,0,0.293,0.031,0.356,0.094c0.063,0.063,0.108,0.174,0.135,0.332L59.62,35.23z"/>
		<path fill="#4D4D4D" d="M66.09,31.062c0,0.147-0.03,0.288-0.09,0.422s-0.141,0.251-0.242,0.353
			c-0.101,0.101-0.22,0.18-0.356,0.237c-0.137,0.058-0.279,0.086-0.426,0.086s-0.287-0.028-0.417-0.086
			c-0.131-0.058-0.247-0.137-0.348-0.237c-0.101-0.102-0.18-0.219-0.238-0.353c-0.057-0.134-0.086-0.274-0.086-0.422
			c0-0.152,0.029-0.296,0.086-0.43c0.058-0.134,0.137-0.251,0.238-0.353c0.101-0.101,0.217-0.18,0.348-0.237
			c0.131-0.058,0.27-0.086,0.417-0.086s0.29,0.028,0.426,0.086c0.136,0.058,0.255,0.137,0.356,0.237
			c0.101,0.102,0.182,0.219,0.242,0.353S66.09,30.909,66.09,31.062z M65.787,33.634v8.321H64.19v-8.321H65.787z"/>
		<path fill="#4D4D4D" d="M68.105,41.955v-8.321h0.958c0.224,0,0.363,0.106,0.418,0.319l0.114,0.794
			c0.307-0.365,0.646-0.664,1.021-0.896s0.812-0.348,1.314-0.348c0.551,0,0.999,0.151,1.343,0.454s0.596,0.714,0.754,1.232
			c0.12-0.295,0.275-0.549,0.467-0.762s0.404-0.388,0.639-0.523c0.234-0.137,0.484-0.238,0.749-0.304
			c0.266-0.065,0.534-0.098,0.808-0.098c0.441,0,0.836,0.069,1.184,0.208c0.347,0.14,0.64,0.343,0.88,0.61s0.423,0.599,0.549,0.991
			c0.126,0.394,0.188,0.841,0.188,1.344v5.299h-1.605v-5.299c0-0.623-0.135-1.093-0.405-1.409s-0.665-0.475-1.184-0.475
			c-0.229,0-0.448,0.039-0.655,0.118s-0.389,0.198-0.545,0.356c-0.155,0.158-0.278,0.355-0.368,0.59s-0.135,0.508-0.135,0.819v5.299
			h-1.605v-5.299c0-0.645-0.129-1.12-0.386-1.426c-0.256-0.306-0.633-0.458-1.13-0.458c-0.344,0-0.663,0.09-0.958,0.27
			c-0.295,0.181-0.565,0.426-0.812,0.737v6.176H68.105z"/>
		<path fill="#4D4D4D" d="M88.475,40.768c-0.197,0.229-0.424,0.427-0.68,0.594c-0.257,0.167-0.53,0.302-0.819,0.405
			s-0.589,0.181-0.896,0.229c-0.309,0.049-0.613,0.073-0.914,0.073c-0.573,0-1.104-0.097-1.593-0.29
			c-0.488-0.194-0.912-0.479-1.27-0.853c-0.357-0.373-0.636-0.838-0.835-1.392c-0.199-0.555-0.299-1.192-0.299-1.913
			c0-0.578,0.09-1.118,0.27-1.617c0.181-0.5,0.438-0.936,0.774-1.307s0.746-0.663,1.232-0.876s1.032-0.319,1.639-0.319
			c0.508,0,0.976,0.083,1.404,0.249c0.429,0.167,0.799,0.408,1.109,0.726c0.312,0.316,0.556,0.707,0.733,1.171
			s0.267,0.994,0.267,1.589c0,0.246-0.027,0.411-0.082,0.496c-0.055,0.084-0.156,0.126-0.304,0.126h-5.454
			c0.016,0.497,0.087,0.93,0.213,1.299c0.125,0.368,0.299,0.676,0.52,0.921c0.222,0.246,0.484,0.429,0.791,0.549
			c0.306,0.12,0.646,0.181,1.023,0.181c0.354,0,0.662-0.041,0.922-0.123c0.259-0.082,0.482-0.171,0.671-0.267
			c0.188-0.095,0.347-0.184,0.476-0.266c0.128-0.082,0.241-0.123,0.34-0.123c0.131,0,0.231,0.049,0.303,0.147L88.475,40.768z
			 M87.155,36.869c0-0.317-0.045-0.609-0.135-0.877s-0.223-0.499-0.397-0.696c-0.175-0.196-0.388-0.349-0.639-0.458
			s-0.54-0.164-0.868-0.164c-0.672,0-1.2,0.193-1.585,0.581c-0.385,0.389-0.629,0.926-0.732,1.614H87.155z"/>
		<path fill="#4D4D4D" d="M92.856,42.086c-0.672,0-1.188-0.188-1.552-0.565c-0.363-0.376-0.545-0.914-0.545-1.613v-4.979h-0.967
			c-0.093,0-0.17-0.028-0.233-0.086c-0.062-0.058-0.094-0.144-0.094-0.258v-0.647l1.352-0.188l0.36-2.481
			c0.021-0.093,0.063-0.165,0.127-0.217c0.062-0.052,0.144-0.078,0.241-0.078h0.811v2.793h2.359v1.163h-2.359v4.873
			c0,0.328,0.081,0.572,0.242,0.733s0.367,0.241,0.618,0.241c0.147,0,0.274-0.019,0.381-0.057s0.198-0.081,0.274-0.127
			c0.076-0.047,0.142-0.089,0.196-0.127s0.104-0.058,0.147-0.058c0.055,0,0.098,0.012,0.127,0.037
			c0.03,0.024,0.062,0.063,0.095,0.118l0.475,0.771c-0.262,0.24-0.573,0.426-0.934,0.557S93.244,42.086,92.856,42.086z"/>
		<path fill="#4D4D4D" d="M102.964,40.768c-0.197,0.229-0.424,0.427-0.68,0.594c-0.257,0.167-0.53,0.302-0.819,0.405
			s-0.589,0.181-0.896,0.229c-0.309,0.049-0.613,0.073-0.914,0.073c-0.573,0-1.104-0.097-1.593-0.29
			c-0.488-0.194-0.912-0.479-1.27-0.853c-0.357-0.373-0.636-0.838-0.835-1.392c-0.199-0.555-0.299-1.192-0.299-1.913
			c0-0.578,0.09-1.118,0.27-1.617c0.181-0.5,0.438-0.936,0.774-1.307s0.746-0.663,1.232-0.876s1.032-0.319,1.639-0.319
			c0.508,0,0.976,0.083,1.404,0.249c0.429,0.167,0.799,0.408,1.109,0.726c0.312,0.316,0.556,0.707,0.733,1.171
			s0.267,0.994,0.267,1.589c0,0.246-0.027,0.411-0.082,0.496c-0.055,0.084-0.156,0.126-0.304,0.126h-5.454
			c0.016,0.497,0.087,0.93,0.213,1.299c0.125,0.368,0.299,0.676,0.52,0.921c0.222,0.246,0.484,0.429,0.791,0.549
			c0.306,0.12,0.646,0.181,1.023,0.181c0.354,0,0.662-0.041,0.922-0.123c0.259-0.082,0.482-0.171,0.671-0.267
			c0.188-0.095,0.347-0.184,0.476-0.266c0.128-0.082,0.241-0.123,0.34-0.123c0.131,0,0.231,0.049,0.303,0.147L102.964,40.768z
			 M101.645,36.869c0-0.317-0.045-0.609-0.135-0.877s-0.223-0.499-0.397-0.696c-0.175-0.196-0.388-0.349-0.639-0.458
			s-0.54-0.164-0.868-0.164c-0.672,0-1.2,0.193-1.585,0.581c-0.385,0.389-0.629,0.926-0.732,1.614H101.645z"/>
		<path fill="#4D4D4D" d="M106.313,35.23c0.268-0.546,0.59-0.975,0.967-1.285c0.377-0.312,0.83-0.468,1.359-0.468
			c0.181,0,0.351,0.021,0.512,0.062s0.302,0.103,0.422,0.185l-0.106,1.204c-0.038,0.147-0.128,0.221-0.271,0.221
			c-0.076,0-0.19-0.015-0.344-0.045c-0.152-0.029-0.316-0.045-0.491-0.045c-0.257,0-0.483,0.037-0.68,0.11
			c-0.196,0.074-0.373,0.184-0.528,0.328s-0.294,0.322-0.414,0.532s-0.231,0.449-0.336,0.717v5.209h-1.597v-8.321h0.917
			c0.175,0,0.294,0.031,0.356,0.094c0.062,0.063,0.108,0.174,0.136,0.332L106.313,35.23z"/>
	</g>
	<g>
		<path fill="#4D4D4D" d="M18.529,94.581h-1.343c-0.153,0-0.278-0.038-0.376-0.114c-0.098-0.077-0.169-0.175-0.213-0.295
			l-1.041-2.728h-5.184l-1.041,2.728c-0.038,0.104-0.109,0.197-0.213,0.282s-0.229,0.127-0.377,0.127H7.399l4.685-11.762h1.761
			L18.529,94.581z M15.082,90.199l-1.745-4.562c-0.126-0.311-0.251-0.704-0.377-1.179c-0.06,0.234-0.122,0.453-0.184,0.655
			c-0.063,0.202-0.125,0.382-0.185,0.54l-1.736,4.546H15.082z"/>
		<path fill="#4D4D4D" d="M25.278,87.815c-0.049,0.061-0.097,0.108-0.143,0.144c-0.047,0.036-0.114,0.054-0.201,0.054
			c-0.087,0-0.179-0.034-0.274-0.103c-0.096-0.068-0.216-0.143-0.36-0.222c-0.145-0.079-0.32-0.152-0.524-0.221
			s-0.458-0.103-0.757-0.103c-0.394,0-0.74,0.071-1.041,0.213c-0.3,0.143-0.55,0.344-0.75,0.606
			c-0.199,0.262-0.351,0.581-0.455,0.958c-0.104,0.377-0.155,0.8-0.155,1.27c0,0.486,0.054,0.919,0.164,1.298
			c0.109,0.38,0.265,0.699,0.467,0.959c0.202,0.259,0.448,0.456,0.737,0.589c0.29,0.135,0.611,0.201,0.966,0.201
			c0.344,0,0.628-0.042,0.852-0.127c0.224-0.085,0.41-0.176,0.557-0.274c0.147-0.099,0.271-0.189,0.369-0.274
			c0.099-0.085,0.199-0.127,0.303-0.127c0.131,0,0.232,0.049,0.303,0.147l0.458,0.59c-0.191,0.234-0.405,0.434-0.643,0.598
			c-0.237,0.164-0.49,0.298-0.757,0.401c-0.268,0.104-0.548,0.181-0.84,0.229s-0.588,0.073-0.889,0.073
			c-0.519,0-1.003-0.095-1.454-0.286c-0.451-0.191-0.841-0.47-1.171-0.836c-0.331-0.365-0.591-0.814-0.782-1.347
			c-0.191-0.532-0.287-1.138-0.287-1.814c0-0.617,0.086-1.188,0.258-1.712c0.172-0.524,0.426-0.976,0.762-1.355
			c0.335-0.379,0.749-0.677,1.241-0.893c0.491-0.216,1.054-0.323,1.687-0.323c0.595,0,1.119,0.096,1.573,0.286
			c0.453,0.191,0.857,0.462,1.212,0.811L25.278,87.815z"/>
		<path fill="#4D4D4D" d="M35.172,94.581h-1.605v-7.027H29.39v4.873c0,0.328,0.081,0.572,0.242,0.733s0.367,0.241,0.618,0.241
			c0.147,0,0.274-0.019,0.381-0.057s0.198-0.081,0.274-0.127c0.077-0.047,0.142-0.089,0.197-0.127
			c0.054-0.038,0.104-0.058,0.147-0.058c0.054,0,0.097,0.012,0.127,0.037c0.03,0.024,0.061,0.063,0.094,0.118l0.475,0.771
			c-0.262,0.24-0.573,0.426-0.934,0.557s-0.734,0.196-1.122,0.196c-0.671,0-1.189-0.188-1.552-0.565
			c-0.363-0.376-0.544-0.914-0.544-1.613v-4.979h-0.966c-0.093,0-0.171-0.028-0.233-0.086c-0.063-0.058-0.094-0.144-0.094-0.258
			v-0.647l1.359-0.188l0.353-2.481c0.021-0.093,0.064-0.165,0.126-0.217c0.063-0.052,0.144-0.078,0.242-0.078h0.811v2.793h5.782
			V94.581z M35.532,83.639c0,0.147-0.03,0.288-0.09,0.422s-0.141,0.251-0.242,0.353c-0.101,0.101-0.22,0.18-0.356,0.237
			c-0.136,0.057-0.278,0.086-0.426,0.086s-0.287-0.029-0.417-0.086c-0.131-0.058-0.247-0.137-0.348-0.237
			c-0.101-0.102-0.18-0.219-0.238-0.353c-0.057-0.134-0.086-0.274-0.086-0.422c0-0.153,0.029-0.298,0.086-0.435
			c0.058-0.136,0.137-0.255,0.238-0.355c0.101-0.102,0.217-0.181,0.348-0.238c0.131-0.057,0.27-0.086,0.417-0.086
			s0.29,0.029,0.426,0.086c0.137,0.058,0.255,0.137,0.356,0.238c0.101,0.101,0.182,0.22,0.242,0.355
			C35.502,83.341,35.532,83.485,35.532,83.639z"/>
		<path fill="#4D4D4D" d="M44.714,86.26l-3.375,8.321h-1.441l-3.375-8.321h1.318c0.125,0,0.229,0.03,0.312,0.09
			c0.082,0.061,0.136,0.137,0.164,0.229l1.99,5.11c0.071,0.213,0.132,0.425,0.185,0.635c0.052,0.211,0.1,0.42,0.143,0.627
			c0.044-0.207,0.093-0.415,0.147-0.622c0.055-0.208,0.12-0.421,0.197-0.64l2.015-5.11c0.033-0.093,0.09-0.169,0.172-0.229
			c0.082-0.06,0.18-0.09,0.295-0.09H44.714z"/>
		<path fill="#4D4D4D" d="M52.585,93.394c-0.197,0.229-0.423,0.427-0.68,0.594c-0.256,0.167-0.529,0.302-0.819,0.405
			s-0.588,0.181-0.897,0.229s-0.613,0.073-0.913,0.073c-0.573,0-1.104-0.097-1.593-0.29c-0.489-0.194-0.912-0.479-1.27-0.853
			c-0.357-0.373-0.636-0.838-0.835-1.392c-0.199-0.555-0.299-1.192-0.299-1.913c0-0.578,0.09-1.118,0.271-1.617
			c0.18-0.5,0.438-0.936,0.774-1.307s0.747-0.663,1.232-0.876s1.032-0.319,1.638-0.319c0.508,0,0.976,0.083,1.405,0.249
			c0.429,0.167,0.798,0.408,1.11,0.726c0.311,0.316,0.555,0.707,0.733,1.171c0.177,0.464,0.266,0.994,0.266,1.589
			c0,0.246-0.027,0.411-0.082,0.496c-0.054,0.084-0.155,0.126-0.303,0.126h-5.455c0.017,0.497,0.087,0.93,0.213,1.299
			c0.126,0.368,0.299,0.676,0.521,0.921c0.221,0.246,0.484,0.429,0.79,0.549s0.647,0.181,1.024,0.181
			c0.355,0,0.662-0.041,0.921-0.123s0.483-0.171,0.672-0.267c0.188-0.095,0.347-0.184,0.475-0.266
			c0.128-0.082,0.242-0.123,0.34-0.123c0.131,0,0.232,0.049,0.303,0.147L52.585,93.394z M51.266,89.495
			c0-0.317-0.045-0.609-0.135-0.877c-0.09-0.268-0.223-0.499-0.397-0.696c-0.175-0.196-0.388-0.349-0.639-0.458
			S49.554,87.3,49.227,87.3c-0.671,0-1.2,0.193-1.585,0.581c-0.385,0.389-0.629,0.926-0.733,1.614H51.266z"/>
		<path fill="#4D4D4D" d="M59.121,94.581V87.57l-0.868-0.106c-0.126-0.027-0.228-0.072-0.307-0.136
			c-0.08-0.062-0.119-0.154-0.119-0.274v-0.663h1.294v-0.401c0-0.508,0.081-0.976,0.242-1.404c0.161-0.429,0.404-0.799,0.729-1.11
			c0.325-0.311,0.729-0.553,1.212-0.725s1.05-0.258,1.7-0.258c0.207,0,0.426,0.014,0.655,0.041c0.229,0.027,0.423,0.068,0.582,0.123
			l-0.057,0.835c-0.011,0.109-0.079,0.167-0.205,0.172c-0.126,0.006-0.3,0.009-0.524,0.009c-0.497,0-0.92,0.049-1.27,0.146
			c-0.35,0.099-0.636,0.246-0.86,0.442c-0.224,0.197-0.388,0.444-0.492,0.741c-0.104,0.298-0.155,0.644-0.155,1.036v0.353h5.062
			v8.19h-1.605v-7.027h-3.407v7.027H59.121z"/>
		<path fill="#4D4D4D" d="M69.563,87.856c0.268-0.546,0.59-0.975,0.967-1.285c0.377-0.312,0.83-0.468,1.359-0.468
			c0.181,0,0.351,0.021,0.512,0.062s0.302,0.103,0.422,0.185l-0.106,1.204c-0.038,0.147-0.128,0.221-0.271,0.221
			c-0.076,0-0.19-0.015-0.344-0.045c-0.152-0.029-0.316-0.045-0.491-0.045c-0.257,0-0.483,0.037-0.68,0.11
			c-0.196,0.074-0.373,0.184-0.528,0.328s-0.294,0.322-0.414,0.532s-0.231,0.449-0.336,0.717v5.209h-1.597V86.26h0.917
			c0.175,0,0.294,0.031,0.356,0.094c0.062,0.063,0.108,0.174,0.136,0.332L69.563,87.856z"/>
		<path fill="#4D4D4D" d="M80.579,93.394c-0.197,0.229-0.424,0.427-0.68,0.594c-0.257,0.167-0.53,0.302-0.819,0.405
			s-0.589,0.181-0.896,0.229c-0.309,0.049-0.613,0.073-0.914,0.073c-0.573,0-1.104-0.097-1.593-0.29
			c-0.488-0.194-0.912-0.479-1.27-0.853c-0.357-0.373-0.636-0.838-0.835-1.392c-0.199-0.555-0.299-1.192-0.299-1.913
			c0-0.578,0.09-1.118,0.27-1.617c0.181-0.5,0.438-0.936,0.774-1.307s0.746-0.663,1.232-0.876s1.032-0.319,1.639-0.319
			c0.508,0,0.976,0.083,1.404,0.249c0.429,0.167,0.799,0.408,1.109,0.726c0.312,0.316,0.556,0.707,0.733,1.171
			s0.267,0.994,0.267,1.589c0,0.246-0.027,0.411-0.082,0.496c-0.055,0.084-0.156,0.126-0.304,0.126h-5.454
			c0.016,0.497,0.087,0.93,0.213,1.299c0.125,0.368,0.299,0.676,0.52,0.921c0.222,0.246,0.484,0.429,0.791,0.549
			c0.306,0.12,0.646,0.181,1.023,0.181c0.354,0,0.662-0.041,0.922-0.123c0.259-0.082,0.482-0.171,0.671-0.267
			c0.188-0.095,0.347-0.184,0.476-0.266c0.128-0.082,0.241-0.123,0.34-0.123c0.131,0,0.231,0.049,0.303,0.147L80.579,93.394z
			 M79.26,89.495c0-0.317-0.045-0.609-0.135-0.877s-0.223-0.499-0.397-0.696c-0.175-0.196-0.388-0.349-0.639-0.458
			s-0.54-0.164-0.868-0.164c-0.672,0-1.2,0.193-1.585,0.581c-0.385,0.389-0.629,0.926-0.732,1.614H79.26z"/>
		<path fill="#4D4D4D" d="M87.328,87.693c-0.044,0.07-0.09,0.121-0.14,0.151C87.14,87.874,87.077,87.89,87,87.89
			c-0.087,0-0.184-0.03-0.29-0.09c-0.106-0.061-0.235-0.126-0.386-0.197c-0.149-0.07-0.326-0.136-0.528-0.196
			c-0.201-0.06-0.441-0.09-0.721-0.09c-0.229,0-0.438,0.028-0.626,0.086s-0.349,0.137-0.479,0.237
			c-0.131,0.102-0.232,0.221-0.303,0.36c-0.071,0.14-0.106,0.288-0.106,0.446c0,0.208,0.062,0.38,0.185,0.517
			c0.122,0.136,0.283,0.254,0.482,0.352c0.199,0.099,0.426,0.188,0.68,0.267s0.514,0.162,0.778,0.25
			c0.265,0.087,0.524,0.187,0.778,0.299c0.254,0.111,0.48,0.251,0.68,0.417c0.199,0.167,0.36,0.368,0.483,0.603
			s0.185,0.521,0.185,0.859c0,0.389-0.07,0.747-0.209,1.077c-0.14,0.331-0.344,0.616-0.614,0.856s-0.605,0.429-1.004,0.565
			c-0.398,0.136-0.854,0.204-1.367,0.204c-0.573,0-1.104-0.096-1.589-0.286c-0.486-0.191-0.894-0.435-1.221-0.729l0.377-0.614
			c0.043-0.076,0.098-0.135,0.164-0.176c0.065-0.041,0.152-0.062,0.262-0.062c0.104,0,0.21,0.038,0.319,0.114
			c0.109,0.077,0.24,0.16,0.394,0.25c0.152,0.09,0.338,0.172,0.557,0.246c0.218,0.073,0.491,0.11,0.819,0.11
			c0.272,0,0.51-0.034,0.712-0.103s0.37-0.161,0.504-0.278s0.233-0.253,0.299-0.405c0.065-0.153,0.099-0.314,0.099-0.483
			c0-0.219-0.062-0.399-0.185-0.545c-0.123-0.145-0.284-0.269-0.483-0.372s-0.427-0.194-0.684-0.271s-0.519-0.158-0.786-0.246
			c-0.268-0.087-0.53-0.188-0.786-0.303c-0.257-0.114-0.485-0.26-0.685-0.435c-0.199-0.174-0.36-0.387-0.482-0.639
			c-0.123-0.251-0.185-0.557-0.185-0.917c0-0.322,0.066-0.631,0.2-0.926s0.328-0.554,0.582-0.778
			c0.254-0.224,0.567-0.402,0.941-0.536s0.802-0.2,1.282-0.2c0.552,0,1.05,0.087,1.494,0.262c0.445,0.175,0.826,0.415,1.143,0.721
			L87.328,87.693z"/>
	</g>
	<g>
		<path fill="#4D4D4D" d="M10.585,142.957H8.832v-11.762h1.753V142.957z"/>
		<path fill="#4D4D4D" d="M14.533,135.79c0.18-0.19,0.369-0.365,0.565-0.523c0.197-0.158,0.405-0.294,0.626-0.406
			c0.221-0.111,0.459-0.199,0.713-0.262s0.525-0.094,0.815-0.094c0.458,0,0.861,0.076,1.208,0.229
			c0.347,0.153,0.637,0.368,0.872,0.644s0.412,0.607,0.533,0.995c0.12,0.388,0.18,0.816,0.18,1.286v5.299h-1.605v-5.299
			c0-0.596-0.137-1.059-0.41-1.389s-0.691-0.495-1.253-0.495c-0.41,0-0.793,0.097-1.151,0.29c-0.358,0.194-0.689,0.458-0.995,0.791
			v6.102h-1.597v-8.321h0.958c0.224,0,0.363,0.106,0.417,0.319L14.533,135.79z"/>
		<path fill="#4D4D4D" d="M21.986,135.799c0.464-0.442,0.968-0.772,1.511-0.991c0.543-0.219,1.14-0.328,1.79-0.328
			c0.475,0,0.896,0.078,1.261,0.233c0.366,0.156,0.674,0.373,0.925,0.651c0.251,0.278,0.441,0.612,0.569,0.999
			c0.128,0.389,0.192,0.816,0.192,1.286v5.308h-0.712c-0.158,0-0.278-0.025-0.36-0.078c-0.082-0.052-0.147-0.148-0.196-0.29
			l-0.172-0.729c-0.213,0.196-0.423,0.37-0.63,0.521s-0.425,0.278-0.651,0.385s-0.468,0.187-0.725,0.241
			c-0.257,0.055-0.541,0.082-0.852,0.082c-0.328,0-0.635-0.045-0.921-0.135s-0.537-0.229-0.75-0.414s-0.381-0.417-0.503-0.696
			c-0.123-0.278-0.185-0.603-0.185-0.975c0-0.327,0.089-0.643,0.266-0.945c0.178-0.304,0.467-0.575,0.868-0.815
			s0.926-0.437,1.573-0.59c0.647-0.152,1.443-0.24,2.388-0.262v-0.606c0-0.628-0.134-1.098-0.401-1.408
			c-0.268-0.312-0.661-0.467-1.18-0.467c-0.35,0-0.643,0.043-0.88,0.131c-0.237,0.087-0.442,0.184-0.614,0.291
			c-0.172,0.106-0.322,0.203-0.451,0.29c-0.128,0.088-0.261,0.131-0.397,0.131c-0.109,0-0.204-0.029-0.283-0.09
			c-0.079-0.06-0.143-0.131-0.192-0.213L21.986,135.799z M26.671,139.263c-0.65,0.022-1.202,0.073-1.655,0.152
			s-0.822,0.184-1.105,0.315c-0.284,0.131-0.489,0.285-0.614,0.462c-0.126,0.178-0.188,0.376-0.188,0.594
			c0,0.208,0.034,0.387,0.103,0.537c0.068,0.15,0.161,0.272,0.278,0.368c0.117,0.096,0.255,0.165,0.414,0.209
			s0.33,0.065,0.516,0.065c0.246,0,0.471-0.024,0.676-0.073c0.205-0.05,0.397-0.119,0.577-0.209s0.352-0.201,0.516-0.332
			c0.164-0.131,0.325-0.281,0.483-0.45V139.263z"/>
		<path fill="#4D4D4D" d="M36.212,136.191c-0.049,0.061-0.097,0.108-0.143,0.144c-0.047,0.036-0.114,0.054-0.201,0.054
			c-0.087,0-0.179-0.034-0.274-0.103c-0.096-0.068-0.216-0.143-0.36-0.222c-0.145-0.079-0.32-0.152-0.524-0.221
			s-0.458-0.103-0.757-0.103c-0.394,0-0.74,0.071-1.041,0.213c-0.3,0.143-0.55,0.344-0.75,0.606
			c-0.199,0.262-0.351,0.581-0.455,0.958c-0.104,0.377-0.155,0.8-0.155,1.27c0,0.486,0.054,0.919,0.164,1.298
			c0.109,0.38,0.265,0.699,0.467,0.959c0.202,0.259,0.448,0.456,0.737,0.589c0.29,0.135,0.611,0.201,0.966,0.201
			c0.344,0,0.628-0.042,0.852-0.127c0.224-0.085,0.41-0.176,0.557-0.274c0.147-0.099,0.271-0.189,0.369-0.274
			c0.099-0.085,0.199-0.127,0.303-0.127c0.131,0,0.232,0.049,0.303,0.147l0.458,0.59c-0.191,0.234-0.405,0.434-0.643,0.598
			c-0.237,0.164-0.49,0.298-0.757,0.401c-0.268,0.104-0.548,0.181-0.84,0.229s-0.588,0.073-0.889,0.073
			c-0.519,0-1.003-0.095-1.454-0.286c-0.451-0.191-0.841-0.47-1.171-0.836c-0.331-0.365-0.591-0.814-0.782-1.347
			c-0.191-0.532-0.287-1.138-0.287-1.814c0-0.617,0.086-1.188,0.258-1.712c0.172-0.524,0.426-0.976,0.762-1.355
			c0.335-0.379,0.749-0.677,1.241-0.893c0.491-0.216,1.054-0.323,1.687-0.323c0.595,0,1.119,0.096,1.573,0.286
			c0.453,0.191,0.857,0.462,1.212,0.811L36.212,136.191z"/>
		<path fill="#4D4D4D" d="M46.106,142.957h-1.605v-7.027h-4.177v4.873c0,0.328,0.081,0.572,0.242,0.733s0.367,0.241,0.618,0.241
			c0.147,0,0.274-0.019,0.381-0.057s0.198-0.081,0.274-0.127c0.077-0.047,0.142-0.089,0.197-0.127
			c0.054-0.038,0.104-0.058,0.147-0.058c0.054,0,0.097,0.012,0.127,0.037c0.03,0.024,0.061,0.063,0.094,0.118l0.475,0.771
			c-0.262,0.24-0.573,0.426-0.934,0.557s-0.734,0.196-1.122,0.196c-0.671,0-1.189-0.188-1.552-0.565
			c-0.363-0.376-0.544-0.914-0.544-1.613v-4.979H37.76c-0.093,0-0.171-0.028-0.233-0.086c-0.063-0.058-0.094-0.144-0.094-0.258
			v-0.647l1.359-0.188l0.353-2.481c0.021-0.093,0.064-0.165,0.126-0.217c0.063-0.052,0.144-0.078,0.242-0.078h0.811v2.793h5.782
			V142.957z M46.466,132.015c0,0.147-0.03,0.288-0.09,0.422s-0.141,0.251-0.242,0.353c-0.101,0.101-0.22,0.18-0.356,0.237
			c-0.136,0.057-0.278,0.086-0.426,0.086s-0.287-0.029-0.417-0.086c-0.131-0.058-0.247-0.137-0.348-0.237
			c-0.101-0.102-0.18-0.219-0.238-0.353c-0.057-0.134-0.086-0.274-0.086-0.422c0-0.153,0.029-0.298,0.086-0.435
			c0.058-0.136,0.137-0.255,0.238-0.355c0.101-0.102,0.217-0.181,0.348-0.238c0.131-0.057,0.27-0.086,0.417-0.086
			s0.29,0.029,0.426,0.086c0.137,0.058,0.255,0.137,0.356,0.238c0.101,0.101,0.182,0.22,0.242,0.355
			C46.437,131.717,46.466,131.861,46.466,132.015z"/>
		<path fill="#4D4D4D" d="M55.648,134.636l-3.375,8.321h-1.441l-3.375-8.321h1.318c0.125,0,0.229,0.03,0.312,0.09
			c0.082,0.061,0.136,0.137,0.164,0.229l1.99,5.11c0.071,0.213,0.132,0.425,0.185,0.635c0.052,0.211,0.1,0.42,0.143,0.627
			c0.044-0.207,0.093-0.415,0.147-0.622c0.055-0.208,0.12-0.421,0.197-0.64l2.015-5.11c0.033-0.093,0.09-0.169,0.172-0.229
			c0.082-0.06,0.18-0.09,0.295-0.09H55.648z"/>
		<path fill="#4D4D4D" d="M63.519,141.77c-0.197,0.229-0.423,0.427-0.68,0.594c-0.256,0.167-0.529,0.302-0.819,0.405
			s-0.588,0.181-0.897,0.229s-0.613,0.073-0.913,0.073c-0.573,0-1.104-0.097-1.593-0.29c-0.489-0.194-0.912-0.479-1.27-0.853
			c-0.357-0.373-0.636-0.838-0.835-1.392c-0.199-0.555-0.299-1.192-0.299-1.913c0-0.578,0.09-1.118,0.271-1.617
			c0.18-0.5,0.438-0.936,0.774-1.307s0.747-0.663,1.232-0.876s1.032-0.319,1.638-0.319c0.508,0,0.976,0.083,1.405,0.249
			c0.429,0.167,0.798,0.408,1.11,0.726c0.311,0.316,0.555,0.707,0.733,1.171c0.177,0.464,0.266,0.994,0.266,1.589
			c0,0.246-0.027,0.411-0.082,0.496c-0.054,0.084-0.155,0.126-0.303,0.126h-5.455c0.017,0.497,0.087,0.93,0.213,1.299
			c0.126,0.368,0.299,0.676,0.521,0.921c0.221,0.246,0.484,0.429,0.79,0.549s0.647,0.181,1.024,0.181
			c0.355,0,0.662-0.041,0.921-0.123s0.483-0.171,0.672-0.267c0.188-0.095,0.347-0.184,0.475-0.266
			c0.128-0.082,0.242-0.123,0.34-0.123c0.131,0,0.232,0.049,0.303,0.147L63.519,141.77z M62.2,137.871
			c0-0.317-0.045-0.609-0.135-0.877c-0.09-0.268-0.223-0.499-0.397-0.696c-0.175-0.196-0.388-0.349-0.639-0.458
			s-0.541-0.164-0.868-0.164c-0.671,0-1.2,0.193-1.585,0.581c-0.385,0.389-0.629,0.926-0.733,1.614H62.2z"/>
		<path fill="#4D4D4D" d="M70.055,142.957v-7.011l-0.868-0.106c-0.125-0.027-0.228-0.072-0.307-0.136
			c-0.079-0.062-0.119-0.154-0.119-0.274v-0.663h1.294v-0.401c0-0.508,0.081-0.976,0.242-1.404s0.403-0.799,0.729-1.11
			c0.325-0.311,0.729-0.553,1.212-0.725c0.483-0.172,1.05-0.258,1.7-0.258c0.207,0,0.426,0.014,0.655,0.041s0.423,0.068,0.581,0.123
			l-0.057,0.835c-0.012,0.109-0.08,0.167-0.205,0.172c-0.126,0.006-0.301,0.009-0.524,0.009c-0.497,0-0.92,0.049-1.27,0.146
			c-0.35,0.099-0.636,0.246-0.86,0.442c-0.224,0.197-0.388,0.444-0.491,0.741c-0.104,0.298-0.155,0.644-0.155,1.036v0.353h5.062
			v8.19h-1.605v-7.027H71.66v7.027H70.055z"/>
		<path fill="#4D4D4D" d="M80.497,136.232c0.268-0.546,0.59-0.975,0.967-1.285c0.377-0.312,0.83-0.468,1.359-0.468
			c0.181,0,0.351,0.021,0.512,0.062s0.302,0.103,0.422,0.185l-0.106,1.204c-0.038,0.147-0.128,0.221-0.271,0.221
			c-0.076,0-0.19-0.015-0.344-0.045c-0.152-0.029-0.316-0.045-0.491-0.045c-0.257,0-0.483,0.037-0.68,0.11
			c-0.196,0.074-0.373,0.184-0.528,0.328s-0.294,0.322-0.414,0.532s-0.231,0.449-0.336,0.717v5.209H78.99v-8.321h0.917
			c0.175,0,0.294,0.031,0.356,0.094c0.062,0.063,0.108,0.174,0.136,0.332L80.497,136.232z"/>
		<path fill="#4D4D4D" d="M91.514,141.77c-0.197,0.229-0.424,0.427-0.68,0.594c-0.257,0.167-0.53,0.302-0.819,0.405
			s-0.589,0.181-0.896,0.229c-0.309,0.049-0.613,0.073-0.914,0.073c-0.573,0-1.104-0.097-1.593-0.29
			c-0.488-0.194-0.912-0.479-1.27-0.853c-0.357-0.373-0.636-0.838-0.835-1.392c-0.199-0.555-0.299-1.192-0.299-1.913
			c0-0.578,0.09-1.118,0.27-1.617c0.181-0.5,0.438-0.936,0.774-1.307s0.746-0.663,1.232-0.876s1.032-0.319,1.639-0.319
			c0.508,0,0.976,0.083,1.404,0.249c0.429,0.167,0.799,0.408,1.109,0.726c0.312,0.316,0.556,0.707,0.733,1.171
			s0.267,0.994,0.267,1.589c0,0.246-0.027,0.411-0.082,0.496c-0.055,0.084-0.156,0.126-0.304,0.126h-5.454
			c0.016,0.497,0.087,0.93,0.213,1.299c0.125,0.368,0.299,0.676,0.52,0.921c0.222,0.246,0.484,0.429,0.791,0.549
			c0.306,0.12,0.646,0.181,1.023,0.181c0.354,0,0.662-0.041,0.922-0.123c0.259-0.082,0.482-0.171,0.671-0.267
			c0.188-0.095,0.347-0.184,0.476-0.266c0.128-0.082,0.241-0.123,0.34-0.123c0.131,0,0.231,0.049,0.303,0.147L91.514,141.77z
			 M90.194,137.871c0-0.317-0.045-0.609-0.135-0.877s-0.223-0.499-0.397-0.696c-0.175-0.196-0.388-0.349-0.639-0.458
			s-0.54-0.164-0.868-0.164c-0.672,0-1.2,0.193-1.585,0.581c-0.385,0.389-0.629,0.926-0.732,1.614H90.194z"/>
		<path fill="#4D4D4D" d="M98.263,136.069c-0.044,0.07-0.09,0.121-0.14,0.151c-0.049,0.029-0.111,0.045-0.188,0.045
			c-0.087,0-0.184-0.03-0.29-0.09c-0.106-0.061-0.235-0.126-0.386-0.197c-0.149-0.07-0.326-0.136-0.528-0.196
			c-0.201-0.06-0.441-0.09-0.721-0.09c-0.229,0-0.438,0.028-0.626,0.086s-0.349,0.137-0.479,0.237
			c-0.131,0.102-0.232,0.221-0.303,0.36c-0.071,0.14-0.106,0.288-0.106,0.446c0,0.208,0.062,0.38,0.185,0.517
			c0.122,0.136,0.283,0.254,0.482,0.352c0.199,0.099,0.426,0.188,0.68,0.267s0.514,0.162,0.778,0.25
			c0.265,0.087,0.524,0.187,0.778,0.299c0.254,0.111,0.48,0.251,0.68,0.417c0.199,0.167,0.36,0.368,0.483,0.603
			s0.185,0.521,0.185,0.859c0,0.389-0.07,0.747-0.209,1.077c-0.14,0.331-0.344,0.616-0.614,0.856s-0.605,0.429-1.004,0.565
			c-0.398,0.136-0.854,0.204-1.367,0.204c-0.573,0-1.104-0.096-1.589-0.286c-0.486-0.191-0.894-0.435-1.221-0.729l0.377-0.614
			c0.043-0.076,0.098-0.135,0.164-0.176c0.065-0.041,0.152-0.062,0.262-0.062c0.104,0,0.21,0.038,0.319,0.114
			c0.109,0.077,0.24,0.16,0.394,0.25c0.152,0.09,0.338,0.172,0.557,0.246c0.218,0.073,0.491,0.11,0.819,0.11
			c0.272,0,0.51-0.034,0.712-0.103s0.37-0.161,0.504-0.278s0.233-0.253,0.299-0.405c0.065-0.153,0.099-0.314,0.099-0.483
			c0-0.219-0.062-0.399-0.185-0.545c-0.123-0.145-0.284-0.269-0.483-0.372s-0.427-0.194-0.684-0.271s-0.519-0.158-0.786-0.246
			c-0.268-0.087-0.53-0.188-0.786-0.303c-0.257-0.114-0.485-0.26-0.685-0.435c-0.199-0.174-0.36-0.387-0.482-0.639
			c-0.123-0.251-0.185-0.557-0.185-0.917c0-0.322,0.066-0.631,0.2-0.926s0.328-0.554,0.582-0.778
			c0.254-0.224,0.567-0.402,0.941-0.536s0.802-0.2,1.282-0.2c0.552,0,1.05,0.087,1.494,0.262c0.445,0.175,0.826,0.415,1.143,0.721
			L98.263,136.069z"/>
	</g>
</g>
<g id="legend">
	<g>
		<g>
			<path fill="#FF0000" d="M163,92.529c0,9.649-7.822,17.471-17.471,17.471h-17.059C118.822,110,111,102.178,111,92.529v-2.059
				C111,80.822,118.822,73,128.471,73h17.059C155.178,73,163,80.822,163,90.471V92.529z"/>
		</g>
		<g>
			<path fill="#FFFFFF" d="M119.728,95.62c0.423-1.005,1.422-2.07,2.997-3.193c1.367-0.979,2.252-1.681,2.652-2.104
				c0.62-0.659,0.927-1.38,0.927-2.164c0-0.64-0.176-1.17-0.531-1.593c-0.354-0.423-0.858-0.635-1.518-0.635
				c-0.902,0-1.517,0.337-1.843,1.01c-0.188,0.389-0.298,1.005-0.334,1.853h-2.881c0.047-1.284,0.28-2.32,0.697-3.111
				c0.792-1.505,2.197-2.258,4.218-2.258c1.598,0,2.868,0.442,3.812,1.326c0.945,0.885,1.418,2.056,1.418,3.512
				c0,1.119-0.334,2.108-1.001,2.977c-0.438,0.576-1.158,1.217-2.159,1.924l-1.188,0.844c-0.741,0.527-1.252,0.91-1.526,1.145
				c-0.273,0.236-0.504,0.511-0.692,0.823h6.588v2.61H119.03C119.057,97.503,119.29,96.515,119.728,95.62z"/>
			<path fill="#FFFFFF" d="M133.307,94.55c0.117,0.645,0.343,1.141,0.675,1.493c0.333,0.35,0.817,0.523,1.454,0.523
				c0.733,0,1.293-0.258,1.676-0.773c0.385-0.518,0.576-1.168,0.576-1.953c0-0.77-0.179-1.418-0.538-1.952
				c-0.36-0.527-0.922-0.794-1.682-0.794c-0.36,0-0.673,0.045-0.935,0.135c-0.465,0.167-0.813,0.476-1.049,0.926l-2.659-0.124
				l1.058-8.336h8.303v2.52h-6.162l-0.539,3.298c0.455-0.297,0.813-0.496,1.069-0.593c0.429-0.161,0.954-0.238,1.57-0.238
				c1.245,0,2.333,0.418,3.262,1.258c0.929,0.838,1.394,2.061,1.394,3.663c0,1.396-0.448,2.639-1.341,3.736
				c-0.894,1.096-2.232,1.644-4.013,1.644c-1.437,0-2.614-0.385-3.535-1.154c-0.924-0.771-1.436-1.864-1.539-3.277H133.307z"/>
			<path fill="#FFFFFF" d="M141.696,95.475h3.152v3.11h-3.152V95.475z"/>
			<path fill="#FFFFFF" d="M155.342,85.422c0.775,1.353,1.162,3.273,1.162,5.765c0,2.492-0.387,4.409-1.162,5.755
				c-0.771,1.346-2.119,2.02-4.042,2.02c-1.92,0-3.268-0.674-4.041-2.02s-1.16-3.263-1.16-5.755c0-2.491,0.387-4.412,1.16-5.765
				s2.121-2.028,4.041-2.028C153.223,83.394,154.57,84.069,155.342,85.422z M149.552,95.169c0.287,0.918,0.869,1.379,1.748,1.379
				c0.882,0,1.46-0.461,1.733-1.379c0.274-0.921,0.411-2.248,0.411-3.982c0-1.816-0.137-3.162-0.411-4.036
				c-0.273-0.874-0.852-1.312-1.733-1.312c-0.879,0-1.461,0.438-1.748,1.312c-0.284,0.874-0.426,2.22-0.426,4.036
				C149.126,92.921,149.268,94.248,149.552,95.169z"/>
		</g>
	</g>
	<g>
		<circle fill="#FF0000" cx="194.893" cy="83.267" r="8.252"/>
		<text transform="matrix(1 0 0 1 174.7441 103.8276)" fill="#4D4D4D" font-family="'Lato-Semibold'" font-size="12">&lt;1 acre</text>
	</g>
	<g>
		<g>
			<path fill="#999999" d="M163,140.529c0,9.648-7.822,17.471-17.471,17.471h-17.059c-9.648,0-17.471-7.822-17.471-17.471v-2.059
				c0-9.648,7.822-17.471,17.471-17.471h17.059c9.648,0,17.471,7.822,17.471,17.471V140.529z"/>
		</g>
		<g>
			<path fill="#FFFFFF" d="M119.728,143.62c0.423-1.005,1.422-2.07,2.997-3.193c1.367-0.979,2.252-1.681,2.652-2.104
				c0.62-0.659,0.927-1.38,0.927-2.164c0-0.64-0.176-1.17-0.531-1.593c-0.354-0.423-0.858-0.635-1.518-0.635
				c-0.902,0-1.517,0.337-1.843,1.01c-0.188,0.389-0.298,1.005-0.334,1.853h-2.881c0.047-1.284,0.28-2.32,0.697-3.111
				c0.792-1.505,2.197-2.258,4.218-2.258c1.598,0,2.868,0.442,3.812,1.326c0.945,0.885,1.418,2.056,1.418,3.512
				c0,1.119-0.334,2.108-1.001,2.977c-0.438,0.576-1.158,1.217-2.159,1.924l-1.188,0.844c-0.741,0.527-1.252,0.91-1.526,1.145
				c-0.273,0.236-0.504,0.511-0.692,0.823h6.588v2.61H119.03C119.057,145.503,119.29,144.515,119.728,143.62z"/>
			<path fill="#FFFFFF" d="M133.307,142.55c0.117,0.645,0.343,1.141,0.675,1.493c0.333,0.35,0.817,0.523,1.454,0.523
				c0.733,0,1.293-0.258,1.676-0.773c0.385-0.518,0.576-1.168,0.576-1.953c0-0.77-0.179-1.418-0.538-1.952
				c-0.36-0.527-0.922-0.794-1.682-0.794c-0.36,0-0.673,0.045-0.935,0.135c-0.465,0.167-0.813,0.476-1.049,0.926l-2.659-0.124
				l1.058-8.336h8.303v2.52h-6.162l-0.539,3.298c0.455-0.297,0.813-0.496,1.069-0.593c0.429-0.161,0.954-0.238,1.57-0.238
				c1.245,0,2.333,0.418,3.262,1.258c0.929,0.838,1.394,2.061,1.394,3.663c0,1.396-0.448,2.639-1.341,3.736
				c-0.894,1.096-2.232,1.644-4.013,1.644c-1.437,0-2.614-0.385-3.535-1.154c-0.924-0.771-1.436-1.864-1.539-3.277H133.307z"/>
			<path fill="#FFFFFF" d="M141.696,143.475h3.152v3.11h-3.152V143.475z"/>
			<path fill="#FFFFFF" d="M155.342,133.422c0.775,1.353,1.162,3.273,1.162,5.765c0,2.492-0.387,4.409-1.162,5.755
				c-0.771,1.346-2.119,2.02-4.042,2.02c-1.92,0-3.268-0.674-4.041-2.02s-1.16-3.263-1.16-5.755c0-2.491,0.387-4.412,1.16-5.765
				s2.121-2.028,4.041-2.028C153.223,131.394,154.57,132.069,155.342,133.422z M149.552,143.169
				c0.287,0.918,0.869,1.379,1.748,1.379c0.882,0,1.46-0.461,1.733-1.379c0.274-0.921,0.411-2.248,0.411-3.982
				c0-1.816-0.137-3.162-0.411-4.036c-0.273-0.874-0.852-1.312-1.733-1.312c-0.879,0-1.461,0.438-1.748,1.312
				c-0.284,0.874-0.426,2.22-0.426,4.036C149.126,140.921,149.268,142.248,149.552,143.169z"/>
		</g>
	</g>
	<g>
		<circle fill="#999999" cx="194.893" cy="131.267" r="8.252"/>
		<text transform="matrix(1 0 0 1 174.7441 151.8281)" fill="#4D4D4D" font-family="'Lato-Semibold'" font-size="12">&lt;1 acre</text>
	</g>
</g>
</svg>
