<svg xmlns="http://www.w3.org/2000/svg" width="322.788" height="189.128" viewBox="0 0 322.788 189.128"><switch><g><path fill="#95A63A" d="M127.645 51.053a4.925 4.925 0 0 1-2.282-.565 4.92 4.92 0 0 1-2.075-6.644l12.891-24.599a4.92 4.92 0 0 1 4.058-2.626 4.93 4.93 0 0 1 4.351 2.112l5.062 7.322 9.02-22.933a4.935 4.935 0 0 1 4.128-3.104c1.859-.15 3.639.717 4.625 2.292l10.392 16.594 7.389-7.688a4.923 4.923 0 0 1 7.097 6.822L180.539 30.27a4.921 4.921 0 0 1-7.723-.799l-8.557-13.667-8.827 22.441a4.922 4.922 0 0 1-8.628.998l-5.682-8.218-9.115 17.388a4.923 4.923 0 0 1-4.362 2.64z"/><g fill="#6A7072"><path d="M175.195 63.793c0 7.276-5.897 13.176-13.174 13.176-7.279 0-13.175-5.899-13.175-13.176 0-7.278 5.896-13.18 13.175-13.18 7.277.001 13.174 5.902 13.174 13.18z"/><path d="M159.962 98.834c-19.36 0-35.108-15.748-35.108-35.105a4.922 4.922 0 0 1 9.842 0c0 13.931 11.334 25.263 25.267 25.263 13.722 0 23.079-5.76 27.805-17.112 3.58-8.605.411-22.396-2.217-27.07a4.922 4.922 0 0 1 8.576-4.83c4.134 7.338 7.482 24.267 2.726 35.685-6.221 14.941-19.322 23.169-36.891 23.169z"/></g><g fill="#96A73A"><path d="M17.004 139.954c-.153.269-.316.464-.489.586a1.094 1.094 0 0 1-.645.183c-.269 0-.561-.1-.874-.298s-.688-.42-1.124-.663-.944-.464-1.527-.663c-.583-.198-1.271-.298-2.065-.298-.718 0-1.345.087-1.883.26s-.989.413-1.354.721a2.868 2.868 0 0 0-.816 1.104c-.18.43-.27.9-.27 1.412 0 .653.183 1.198.548 1.633.365.436.849.808 1.45 1.115.603.307 1.288.583 2.057.826s1.556.502 2.363.777c.807.276 1.595.596 2.363.961s1.453.826 2.056 1.384c.602.557 1.085 1.239 1.45 2.046s.548 1.787.548 2.939a9.578 9.578 0 0 1-.644 3.526c-.43 1.095-1.057 2.049-1.883 2.862s-1.835 1.454-3.026 1.922c-1.191.467-2.556.701-4.093.701-.884 0-1.755-.087-2.613-.26a13.814 13.814 0 0 1-2.469-.739 13.2 13.2 0 0 1-2.219-1.153A10.665 10.665 0 0 1 0 159.34l1.518-2.479c.128-.18.295-.33.5-.452.205-.121.423-.183.653-.183.32 0 .666.132 1.037.395.372.263.813.554 1.326.874.512.32 1.111.611 1.796.874.686.263 1.509.394 2.47.394 1.473 0 2.612-.349 3.42-1.047.807-.698 1.21-1.7 1.21-3.007 0-.73-.183-1.326-.547-1.787-.365-.461-.85-.849-1.451-1.162a10.987 10.987 0 0 0-2.056-.798 66.52 66.52 0 0 1-2.344-.711c-.795-.256-1.576-.563-2.345-.922s-1.454-.826-2.056-1.402c-.603-.576-1.086-1.297-1.45-2.162-.365-.864-.548-1.931-.548-3.199 0-1.012.201-1.998.605-2.958.403-.961.989-1.812 1.758-2.556s1.716-1.339 2.844-1.787c1.127-.448 2.421-.673 3.881-.673 1.64 0 3.151.257 4.534.769 1.384.513 2.562 1.23 3.535 2.152l-1.286 2.441zM35.891 147.139a2.35 2.35 0 0 1-.413.423c-.134.103-.33.153-.586.153-.243 0-.48-.073-.711-.221s-.506-.313-.826-.499-.701-.353-1.143-.5c-.442-.147-.99-.221-1.644-.221-.832 0-1.562.15-2.19.451-.627.301-1.149.733-1.565 1.297s-.728 1.246-.932 2.046c-.205.801-.308 1.707-.308 2.719 0 1.051.112 1.986.336 2.806.225.82.548 1.508.971 2.065s.935.979 1.537 1.269c.602.288 1.28.432 2.036.432s1.367-.093 1.835-.278.861-.391 1.182-.615c.32-.224.599-.429.836-.614s.503-.278.798-.278c.384 0 .672.146.864.441l1.364 1.729a8.647 8.647 0 0 1-1.71 1.547 9.265 9.265 0 0 1-1.912.999 9.741 9.741 0 0 1-2.036.528c-.698.103-1.394.153-2.085.153a8.754 8.754 0 0 1-3.439-.682 8.118 8.118 0 0 1-2.824-1.989c-.807-.87-1.444-1.937-1.912-3.199-.468-1.261-.701-2.699-.701-4.313 0-1.447.208-2.788.625-4.024.416-1.236 1.027-2.306 1.835-3.209.807-.903 1.806-1.61 2.997-2.123s2.562-.769 4.111-.769c1.473 0 2.764.237 3.872.711a9.455 9.455 0 0 1 2.987 2.036l-1.249 1.729zM48.341 142.663c1.242 0 2.389.198 3.439.596a7.497 7.497 0 0 1 2.709 1.738c.756.763 1.348 1.697 1.777 2.806.429 1.108.644 2.373.644 3.795 0 .717-.077 1.2-.23 1.45s-.448.375-.884.375h-12.2c.076 1.012.256 1.886.537 2.622.282.737.653 1.346 1.115 1.825.461.48 1.009.84 1.643 1.076.634.237 1.335.355 2.104.355s1.432-.089 1.989-.269a9.398 9.398 0 0 0 1.46-.596c.416-.218.781-.416 1.095-.596.314-.18.618-.269.913-.269.396 0 .691.146.884.441l1.364 1.729a7.932 7.932 0 0 1-1.768 1.547 9.936 9.936 0 0 1-2.047.999c-.711.249-1.435.426-2.171.528s-1.45.153-2.143.153c-1.37 0-2.645-.228-3.823-.682-1.179-.455-2.203-1.127-3.074-2.018s-1.557-1.992-2.056-3.305c-.5-1.313-.749-2.834-.749-4.563 0-1.345.217-2.609.652-3.795a9.133 9.133 0 0 1 1.874-3.093c.813-.878 1.806-1.572 2.978-2.085 1.173-.509 2.495-.764 3.968-.764zm.097 3.4c-1.384 0-2.467.392-3.247 1.172-.782.782-1.281 1.89-1.499 3.324h8.953c0-.614-.086-1.194-.259-1.738-.173-.545-.433-1.021-.778-1.432s-.785-.733-1.316-.971c-.532-.236-1.15-.355-1.854-.355zM59.696 162.683V142.97h2.901c.615 0 1.019.288 1.211.864l.326 1.557c.397-.41.816-.781 1.259-1.114.441-.333.909-.622 1.402-.865s1.021-.429 1.585-.557 1.179-.192 1.845-.192c1.076 0 2.03.183 2.863.548a5.642 5.642 0 0 1 2.084 1.537c.558.659.98 1.447 1.269 2.363s.433 1.924.433 3.025v12.547h-4.746v-12.547c0-1.203-.275-2.136-.826-2.795-.551-.66-1.39-.99-2.517-.99-.82 0-1.589.187-2.306.558a8.287 8.287 0 0 0-2.037 1.518v14.257h-4.746zM94.262 162.683c-.448 0-.794-.067-1.037-.202-.244-.134-.436-.406-.577-.816l-.422-1.402c-.5.448-.987.843-1.461 1.182a8.6 8.6 0 0 1-1.479.855c-.512.23-1.06.403-1.643.519s-1.227.173-1.931.173a7.541 7.541 0 0 1-2.306-.337 5.059 5.059 0 0 1-1.825-1.008 4.511 4.511 0 0 1-1.191-1.672c-.282-.666-.423-1.441-.423-2.325 0-.742.195-1.476.586-2.2.391-.723 1.041-1.376 1.95-1.959s2.12-1.066 3.632-1.451c1.511-.384 3.394-.602 5.648-.653v-1.152c0-1.319-.282-2.296-.846-2.931-.563-.634-1.377-.951-2.439-.951-.769 0-1.406.09-1.912.27s-.951.381-1.335.605c-.385.224-.733.426-1.048.604-.313.18-.662.27-1.047.27-.333 0-.615-.087-.846-.26s-.416-.374-.557-.605l-.846-1.518c2.268-2.075 4.996-3.112 8.186-3.112 1.152 0 2.184.188 3.093.566s1.678.903 2.306 1.576a6.74 6.74 0 0 1 1.432 2.411c.326.935.49 1.96.49 3.074v12.45h-2.152zm-7.09-2.959c.974 0 1.815-.176 2.526-.528s1.406-.887 2.085-1.604v-3.324c-1.384.064-2.539.183-3.468.355s-1.675.395-2.238.663c-.564.27-.968.583-1.211.941a2.05 2.05 0 0 0-.365 1.172c0 .833.247 1.429.74 1.787.493.359 1.137.538 1.931.538zM100.871 162.683V142.97h2.786c.487 0 .826.086 1.019.259s.32.484.384.932l.27 2.229c.627-1.179 1.364-2.104 2.209-2.776.846-.673 1.845-1.009 2.998-1.009.909 0 1.64.198 2.19.596l-.308 3.555c-.064.23-.157.394-.278.489-.122.097-.285.145-.49.145-.192 0-.478-.032-.855-.097a6.717 6.717 0 0 0-1.104-.096c-.525 0-.993.077-1.402.23-.41.154-.778.375-1.104.663a4.53 4.53 0 0 0-.865 1.047c-.25.41-.483.878-.701 1.403v12.143h-4.749zM120.776 137.225c0 .41-.083.794-.25 1.152a3.147 3.147 0 0 1-1.633 1.586c-.372.16-.769.239-1.191.239-.41 0-.797-.079-1.162-.239s-.683-.375-.951-.645a3.105 3.105 0 0 1-.644-.941 2.79 2.79 0 0 1-.24-1.152 3.05 3.05 0 0 1 .884-2.152c.269-.269.586-.483.951-.644s.752-.24 1.162-.24c.423 0 .819.08 1.191.24.371.16.694.375.97.644.275.27.497.59.663.961.167.372.25.768.25 1.191zm-.653 5.745v19.713h-4.765V142.97h4.765zM132.92 142.663c1.46 0 2.789.237 3.986.711 1.198.474 2.223 1.146 3.074 2.018s1.509 1.934 1.97 3.189c.461 1.255.691 2.658.691 4.207 0 1.563-.23 2.973-.691 4.228-.461 1.256-1.118 2.325-1.97 3.209s-1.876 1.562-3.074 2.036c-1.197.474-2.526.711-3.986.711-1.474 0-2.812-.237-4.016-.711-1.204-.474-2.232-1.152-3.084-2.036-.853-.884-1.512-1.953-1.979-3.209-.468-1.255-.701-2.664-.701-4.228 0-1.549.233-2.952.701-4.207.468-1.256 1.127-2.318 1.979-3.189.852-.871 1.88-1.544 3.084-2.018 1.203-.474 2.542-.711 4.016-.711zm0 16.658c1.64 0 2.853-.551 3.641-1.652s1.182-2.716 1.182-4.842-.394-3.747-1.182-4.861-2.001-1.672-3.641-1.672c-1.666 0-2.898.561-3.699 1.682s-1.2 2.738-1.2 4.852.399 3.725 1.2 4.832c.8 1.107 2.033 1.661 3.699 1.661zM157.532 146.813c-.129.205-.263.349-.403.432a1.04 1.04 0 0 1-.538.125c-.23 0-.478-.063-.74-.192-.263-.128-.566-.271-.912-.432s-.74-.305-1.182-.433c-.442-.128-.964-.192-1.566-.192-.935 0-1.668.199-2.2.596-.531.397-.797.916-.797 1.557 0 .423.138.778.413 1.066s.641.541 1.095.759c.455.218.971.413 1.547.586s1.163.362 1.758.566a19.64 19.64 0 0 1 1.759.702 6.178 6.178 0 0 1 1.546.999c.455.403.82.887 1.096 1.45s.413 1.243.413 2.037c0 .948-.17 1.822-.509 2.622-.34.801-.843 1.492-1.509 2.075s-1.489 1.038-2.469 1.364c-.98.327-2.11.49-3.392.49-.679 0-1.342-.062-1.988-.183a11.726 11.726 0 0 1-1.864-.509 10.412 10.412 0 0 1-1.652-.769 8.06 8.06 0 0 1-1.335-.961l1.096-1.807c.141-.218.307-.384.499-.499s.436-.173.73-.173.573.083.836.249c.262.167.566.347.912.538a8.15 8.15 0 0 0 1.22.538c.468.167 1.061.25 1.777.25.563 0 1.048-.067 1.451-.202.403-.134.736-.31.999-.528.263-.217.454-.471.576-.759s.183-.586.183-.894c0-.461-.138-.839-.413-1.133-.275-.295-.641-.551-1.095-.769a10.684 10.684 0 0 0-1.557-.587c-.583-.173-1.179-.361-1.787-.566s-1.204-.445-1.787-.721-1.102-.624-1.556-1.047a4.74 4.74 0 0 1-1.096-1.557c-.275-.614-.413-1.357-.413-2.229 0-.807.16-1.575.48-2.306s.791-1.367 1.412-1.912c.621-.544 1.396-.979 2.325-1.306.929-.327 2.001-.49 3.218-.49 1.358 0 2.595.224 3.709.672 1.114.449 2.043 1.038 2.786 1.769l-1.076 1.714zM178.83 134.929c.16.019.301.058.423.115s.24.141.355.25c.115.108.243.253.385.432l14.563 18.599c-.038-.448-.07-.89-.096-1.325a20.424 20.424 0 0 1-.039-1.211V134.9h4.554v27.783h-2.651c-.41 0-.753-.067-1.027-.202-.276-.134-.542-.361-.798-.682l-14.506-18.503c.038.41.066.816.086 1.22.02.404.029.772.029 1.105v17.062h-4.554V134.9h2.709c.218 0 .407.01.567.029zM211.465 142.663c1.242 0 2.389.198 3.439.596a7.497 7.497 0 0 1 2.709 1.738c.756.763 1.348 1.697 1.777 2.806.429 1.108.644 2.373.644 3.795 0 .717-.077 1.2-.23 1.45s-.448.375-.884.375h-12.2c.076 1.012.256 1.886.537 2.622.282.737.653 1.346 1.115 1.825.461.48 1.009.84 1.643 1.076.634.237 1.335.355 2.104.355s1.432-.089 1.989-.269a9.398 9.398 0 0 0 1.46-.596c.416-.218.781-.416 1.095-.596.314-.18.618-.269.913-.269.396 0 .691.146.884.441l1.364 1.729a7.932 7.932 0 0 1-1.768 1.547 9.936 9.936 0 0 1-2.047.999c-.711.249-1.435.426-2.171.528s-1.45.153-2.143.153c-1.37 0-2.645-.228-3.823-.682-1.179-.455-2.203-1.127-3.074-2.018s-1.557-1.992-2.056-3.305c-.5-1.313-.749-2.834-.749-4.563 0-1.345.217-2.609.652-3.795a9.133 9.133 0 0 1 1.874-3.093c.813-.878 1.806-1.572 2.978-2.085 1.173-.509 2.495-.764 3.968-.764zm.097 3.4c-1.384 0-2.467.392-3.247 1.172-.782.782-1.281 1.89-1.499 3.324h8.953c0-.614-.086-1.194-.259-1.738-.173-.545-.433-1.021-.778-1.432s-.785-.733-1.316-.971c-.532-.236-1.15-.355-1.854-.355zM229.93 162.991c-1.717 0-3.032-.483-3.948-1.451-.916-.967-1.374-2.302-1.374-4.006v-11.01h-2.018a.926.926 0 0 1-.653-.249c-.179-.167-.269-.416-.269-.75v-1.883l3.17-.519.999-5.38c.064-.256.186-.454.365-.596.18-.141.41-.211.691-.211h2.46v6.206h5.265v3.381h-5.265v10.684c0 .614.15 1.095.451 1.44s.714.52 1.239.52c.295 0 .541-.035.74-.106.198-.07.371-.144.519-.221s.278-.15.394-.221.23-.105.346-.105c.142 0 .257.035.347.105.089.07.186.176.288.316l1.422 2.306a7.166 7.166 0 0 1-2.383 1.307 8.858 8.858 0 0 1-2.786.443zM237.192 142.97h3.785c.346 0 .641.083.884.249.243.167.403.378.48.635l2.824 10.528c.141.577.263 1.141.365 1.691s.198 1.095.288 1.633c.141-.538.291-1.082.451-1.633s.33-1.114.51-1.691l3.267-10.567c.076-.256.227-.467.451-.634.224-.166.496-.25.816-.25h2.095c.333 0 .617.084.854.25.237.167.395.378.471.634l3.171 10.567c.166.59.323 1.16.471 1.711.146.551.284 1.102.413 1.652.102-.551.211-1.102.326-1.652s.25-1.121.403-1.711l2.901-10.528c.09-.257.25-.468.48-.635.23-.166.506-.249.826-.249h3.612l-6.264 19.713h-3.805c-.436 0-.736-.281-.902-.846l-3.536-11.394a18.262 18.262 0 0 1-.557-2.267 25.449 25.449 0 0 1-.576 2.305l-3.594 11.355c-.153.564-.493.846-1.018.846h-3.651l-6.241-19.712zM277.676 142.663c1.46 0 2.789.237 3.986.711 1.198.474 2.223 1.146 3.074 2.018s1.509 1.934 1.97 3.189c.461 1.255.691 2.658.691 4.207 0 1.563-.23 2.973-.691 4.228-.461 1.256-1.118 2.325-1.97 3.209s-1.876 1.562-3.074 2.036c-1.197.474-2.526.711-3.986.711-1.474 0-2.812-.237-4.016-.711-1.204-.474-2.232-1.152-3.084-2.036-.853-.884-1.512-1.953-1.979-3.209-.468-1.255-.701-2.664-.701-4.228 0-1.549.233-2.952.701-4.207.468-1.256 1.127-2.318 1.979-3.189.852-.871 1.88-1.544 3.084-2.018 1.203-.474 2.542-.711 4.016-.711zm0 16.658c1.64 0 2.853-.551 3.641-1.652s1.182-2.716 1.182-4.842-.394-3.747-1.182-4.861-2.001-1.672-3.641-1.672c-1.666 0-2.898.561-3.699 1.682s-1.2 2.738-1.2 4.852.399 3.725 1.2 4.832c.8 1.107 2.033 1.661 3.699 1.661zM290.26 162.683V142.97h2.786c.487 0 .826.086 1.019.259s.32.484.384.932l.27 2.229c.627-1.179 1.364-2.104 2.209-2.776.846-.673 1.845-1.009 2.998-1.009.909 0 1.64.198 2.19.596l-.308 3.555c-.064.23-.157.394-.278.489-.122.097-.285.145-.49.145-.192 0-.478-.032-.855-.097a6.717 6.717 0 0 0-1.104-.096c-.525 0-.993.077-1.402.23-.41.154-.778.375-1.104.663a4.53 4.53 0 0 0-.865 1.047c-.25.41-.483.878-.701 1.403v12.143h-4.749zM309.339 134.131v16.351h.884c.32 0 .573-.041.759-.124.186-.084.375-.253.567-.51l4.899-6.052a2.24 2.24 0 0 1 .682-.615c.25-.141.573-.211.971-.211h4.342l-6.129 7.32c-.436.576-.91 1.019-1.422 1.325a3.8 3.8 0 0 1 .721.673c.211.256.413.531.605.826l6.57 9.568h-4.284c-.372 0-.691-.061-.961-.183-.269-.121-.493-.343-.672-.663l-5.034-7.474c-.18-.295-.365-.487-.558-.576-.192-.09-.48-.135-.864-.135h-1.076v9.03h-4.746v-28.552h4.746z"/></g><g fill="#6A7072"><path d="M23.657 176.488v1.85h-5.551v3.701h4.687v1.858h-4.687v5.093h-2.335v-12.502h7.886zM37.379 182.739c0 .916-.151 1.765-.454 2.546s-.73 1.457-1.284 2.027a5.823 5.823 0 0 1-1.997 1.336c-.778.32-1.643.48-2.594.48-.945 0-1.808-.16-2.585-.48a5.863 5.863 0 0 1-2.002-1.336c-.557-.57-.987-1.246-1.293-2.027s-.458-1.63-.458-2.546c0-.917.152-1.766.458-2.547a6.007 6.007 0 0 1 1.293-2.027 5.892 5.892 0 0 1 2.002-1.336c.777-.319 1.64-.479 2.585-.479.634 0 1.23.073 1.789.221.56.146 1.072.354 1.539.622.468.269.887.594 1.259.978.371.383.687.812.946 1.283.26.473.457.986.593 1.539.135.552.203 1.134.203 1.746zm-2.378 0c0-.687-.093-1.302-.276-1.846a3.962 3.962 0 0 0-.787-1.388 3.368 3.368 0 0 0-1.241-.874 4.277 4.277 0 0 0-1.646-.303c-.611 0-1.16.102-1.647.303a3.407 3.407 0 0 0-1.245.874c-.343.38-.606.843-.791 1.388-.185.544-.276 1.159-.276 1.846 0 .686.092 1.301.276 1.846s.448 1.006.791 1.384c.343.377.758.667 1.245.868.487.202 1.036.303 1.647.303.61 0 1.16-.101 1.646-.303a3.389 3.389 0 0 0 1.241-.868 3.91 3.91 0 0 0 .787-1.384c.183-.545.276-1.161.276-1.846zM41.753 184.105v4.885h-2.326v-12.502h3.813c.848 0 1.575.088 2.183.264.608.176 1.107.422 1.496.739.39.316.676.695.86 1.137.185.44.276.927.276 1.457 0 .421-.062.818-.186 1.193a3.478 3.478 0 0 1-1.4 1.825 4.496 4.496 0 0 1-1.172.553c.294.168.548.406.761.718l3.13 4.617h-2.101c-.397 0-.687-.155-.865-.467l-2.628-4.003c-.099-.15-.206-.257-.324-.32s-.293-.095-.523-.095h-.994zm0-1.669h1.452c.438 0 .82-.055 1.146-.164.325-.109.593-.261.804-.454.21-.193.367-.422.472-.688.104-.265.155-.557.155-.873 0-.634-.209-1.121-.627-1.461-.418-.341-1.057-.511-1.915-.511h-1.487v4.151zM66.265 188.99h-1.798c-.202 0-.366-.051-.493-.151s-.222-.227-.285-.376l-.934-2.551h-5.18l-.934 2.551a.827.827 0 0 1-.268.363.754.754 0 0 1-.493.164h-1.815l4.919-12.502h2.369l4.912 12.502zm-8.093-4.721h3.986l-1.522-4.159a10.184 10.184 0 0 1-.233-.652 21.48 21.48 0 0 1-.242-.817c-.08.294-.159.568-.237.821a9.163 9.163 0 0 1-.229.666l-1.523 4.141zM69.888 187.07h4.997v1.92h-7.323v-12.502h2.326v10.582zM88.296 188.99h-1.798c-.202 0-.366-.051-.493-.151s-.222-.227-.285-.376l-.934-2.551h-5.18l-.934 2.551a.827.827 0 0 1-.268.363.754.754 0 0 1-.493.164h-1.815l4.919-12.502h2.369l4.912 12.502zm-8.093-4.721h3.986l-1.522-4.159a10.184 10.184 0 0 1-.233-.652 21.48 21.48 0 0 1-.242-.817c-.08.294-.159.568-.237.821a9.163 9.163 0 0 1-.229.666l-1.523 4.141zM96.597 178.761c-.069.121-.143.209-.221.264s-.175.082-.29.082a.74.74 0 0 1-.393-.134 12.995 12.995 0 0 0-.506-.298 4.286 4.286 0 0 0-.688-.299 2.902 2.902 0 0 0-.93-.134c-.323 0-.605.039-.848.116a1.8 1.8 0 0 0-.609.324 1.299 1.299 0 0 0-.367.498 1.619 1.619 0 0 0-.121.635c0 .294.082.539.246.735s.382.363.653.501c.271.139.579.263.925.372s.7.227 1.063.351.718.268 1.063.432c.346.165.654.372.925.623s.489.558.653.921.246.804.246 1.322c0 .565-.097 1.094-.289 1.587-.193.493-.476.922-.848 1.288s-.826.654-1.362.864c-.535.211-1.149.316-1.841.316a6.101 6.101 0 0 1-3.286-.969 4.745 4.745 0 0 1-.83-.675l.684-1.115a.736.736 0 0 1 .225-.203.563.563 0 0 1 .294-.082c.144 0 .3.06.467.178s.366.249.597.394c.23.144.5.274.809.393.308.118.679.178 1.11.178.663 0 1.177-.157 1.539-.472.363-.313.545-.765.545-1.353 0-.329-.082-.597-.246-.805a1.975 1.975 0 0 0-.653-.522 4.82 4.82 0 0 0-.925-.359c-.346-.098-.697-.204-1.055-.319s-.709-.254-1.055-.415-.654-.372-.926-.632a2.854 2.854 0 0 1-.652-.973c-.164-.389-.246-.868-.246-1.439 0-.455.091-.899.272-1.331.181-.433.444-.815.791-1.15a3.87 3.87 0 0 1 1.279-.804c.507-.202 1.09-.303 1.746-.303.738 0 1.418.115 2.041.346.622.23 1.152.554 1.591.969l-.577 1.097zM101.749 181.727h.545c.219 0 .4-.03.545-.091a.917.917 0 0 0 .371-.29l3.45-4.366c.144-.185.295-.312.454-.385a1.47 1.47 0 0 1 .601-.107h2.006l-4.211 5.196c-.247.316-.504.542-.77.674.19.069.362.166.515.29.153.124.299.287.437.488l4.341 5.854h-2.049c-.277 0-.483-.039-.618-.117a.954.954 0 0 1-.342-.341l-3.536-4.617a.928.928 0 0 0-.381-.329c-.145-.062-.352-.095-.622-.095h-.735v5.499h-2.326v-12.502h2.326v5.239zM122.681 188.99h-1.798c-.202 0-.366-.051-.493-.151s-.222-.227-.285-.376l-.934-2.551h-5.18l-.934 2.551a.827.827 0 0 1-.268.363.754.754 0 0 1-.493.164h-1.815l4.919-12.502h2.369l4.912 12.502zm-8.093-4.721h3.986l-1.522-4.159a10.184 10.184 0 0 1-.233-.652 21.48 21.48 0 0 1-.242-.817c-.08.294-.159.568-.237.821a9.163 9.163 0 0 1-.229.666l-1.523 4.141zM133.472 178.848v3.545h3.355v1.582h-3.355v3.562h-1.737v-3.562h-3.338v-1.582h3.338v-3.545h1.737zM154.732 188.99h-1.798c-.202 0-.366-.051-.493-.151s-.222-.227-.285-.376l-.934-2.551h-5.18l-.934 2.551a.827.827 0 0 1-.268.363.754.754 0 0 1-.493.164h-1.815l4.919-12.502h2.369l4.912 12.502zm-8.092-4.721h3.986l-1.522-4.159a10.184 10.184 0 0 1-.233-.652 21.48 21.48 0 0 1-.242-.817c-.08.294-.159.568-.237.821a9.163 9.163 0 0 1-.229.666l-1.523 4.141zM158.702 184.105v4.885h-2.326v-12.502h3.813c.848 0 1.575.088 2.183.264.608.176 1.107.422 1.496.739.39.316.676.695.86 1.137.185.44.276.927.276 1.457 0 .421-.062.818-.186 1.193a3.478 3.478 0 0 1-1.4 1.825 4.496 4.496 0 0 1-1.172.553c.294.168.548.406.761.718l3.13 4.617h-2.101c-.397 0-.687-.155-.865-.467l-2.628-4.003c-.099-.15-.206-.257-.324-.32s-.293-.095-.523-.095h-.994zm0-1.669h1.452c.438 0 .82-.055 1.146-.164.325-.109.593-.261.804-.454.21-.193.367-.422.472-.688.104-.265.155-.557.155-.873 0-.634-.209-1.121-.627-1.461-.418-.341-1.057-.511-1.915-.511h-1.487v4.151zM176.236 186.042c.127 0 .239.049.337.146l.917.995a5.043 5.043 0 0 1-1.872 1.443c-.74.335-1.63.502-2.667.502-.929 0-1.763-.159-2.503-.476a5.508 5.508 0 0 1-1.898-1.323 5.781 5.781 0 0 1-1.206-2.023 7.603 7.603 0 0 1-.419-2.567c0-.939.149-1.8.449-2.581s.722-1.454 1.267-2.019a5.725 5.725 0 0 1 1.95-1.319c.755-.313 1.591-.471 2.507-.471.911 0 1.72.15 2.426.449.706.3 1.307.692 1.803 1.176l-.778 1.081c-.046.069-.105.13-.178.182s-.171.078-.298.078a.564.564 0 0 1-.269-.074 3.934 3.934 0 0 1-.302-.181c-.11-.072-.237-.151-.381-.238a3.134 3.134 0 0 0-.502-.237c-.189-.072-.41-.133-.661-.182s-.54-.074-.869-.074c-.559 0-1.07.1-1.534.299s-.863.487-1.197.864c-.335.378-.594.839-.778 1.384s-.277 1.166-.277 1.863c0 .703.1 1.328.299 1.876s.468 1.009.809 1.384c.34.374.74.661 1.201.86.462.198.957.298 1.487.298.317 0 .604-.018.86-.052.257-.035.493-.09.709-.164.217-.075.421-.172.614-.29.192-.118.385-.264.575-.437a.762.762 0 0 1 .181-.125.43.43 0 0 1 .198-.047zM188.514 176.488v1.91h-3.771v10.592h-2.325v-10.592h-3.77v-1.91h9.866zM193.182 188.99h-2.335v-12.502h2.335v12.502zM205.252 186.042c.127 0 .239.049.337.146l.917.995a5.043 5.043 0 0 1-1.872 1.443c-.74.335-1.63.502-2.667.502-.929 0-1.763-.159-2.503-.476a5.508 5.508 0 0 1-1.898-1.323 5.781 5.781 0 0 1-1.206-2.023 7.603 7.603 0 0 1-.419-2.567c0-.939.149-1.8.449-2.581s.722-1.454 1.267-2.019a5.725 5.725 0 0 1 1.95-1.319c.755-.313 1.591-.471 2.507-.471.911 0 1.72.15 2.426.449.706.3 1.307.692 1.803 1.176l-.778 1.081c-.046.069-.105.13-.178.182s-.171.078-.298.078a.564.564 0 0 1-.269-.074 3.934 3.934 0 0 1-.302-.181c-.11-.072-.237-.151-.381-.238a3.134 3.134 0 0 0-.502-.237c-.189-.072-.41-.133-.661-.182s-.54-.074-.869-.074c-.559 0-1.07.1-1.534.299s-.863.487-1.197.864c-.335.378-.594.839-.778 1.384s-.277 1.166-.277 1.863c0 .703.1 1.328.299 1.876s.468 1.009.809 1.384c.34.374.74.661 1.201.86.462.198.957.298 1.487.298.317 0 .604-.018.86-.052.257-.035.493-.09.709-.164.217-.075.421-.172.614-.29.192-.118.385-.264.575-.437a.762.762 0 0 1 .181-.125.428.428 0 0 1 .198-.047zM216.708 184.588v4.401h-2.326v-12.502h4.064c.835 0 1.559.098 2.17.294.61.195 1.115.47 1.513.821.398.352.693.772.887 1.262a4.35 4.35 0 0 1 .289 1.608c0 .605-.101 1.16-.302 1.664-.202.505-.505.938-.908 1.302s-.909.646-1.518.848c-.608.201-1.318.302-2.131.302h-1.738zm0-1.815h1.738c.426 0 .798-.053 1.115-.16.316-.106.58-.259.791-.458.21-.198.367-.44.471-.727.104-.285.156-.604.156-.955 0-.334-.052-.637-.156-.907a1.791 1.791 0 0 0-.467-.692 2.083 2.083 0 0 0-.786-.437 3.72 3.72 0 0 0-1.124-.151h-1.738v4.487zM228.104 187.07h4.997v1.92h-7.323v-12.502h2.326v10.582zM246.857 188.99h-1.798c-.202 0-.366-.051-.493-.151s-.222-.227-.285-.376l-.934-2.551h-5.18l-.934 2.551a.827.827 0 0 1-.268.363.754.754 0 0 1-.493.164h-1.815l4.919-12.502h2.369l4.912 12.502zm-8.092-4.721h3.986l-1.522-4.159a10.184 10.184 0 0 1-.233-.652 21.48 21.48 0 0 1-.242-.817c-.08.294-.159.568-.237.821a9.163 9.163 0 0 1-.229.666l-1.523 4.141zM249.975 176.5a.588.588 0 0 1 .35.164c.052.049.109.114.173.194l6.554 8.37a21.55 21.55 0 0 1-.044-.597 9.807 9.807 0 0 1-.017-.545v-7.6h2.049v12.502h-1.193c-.185 0-.339-.03-.462-.091a1.086 1.086 0 0 1-.359-.307l-6.527-8.326a11.51 11.51 0 0 1 .052 1.046v7.678h-2.05v-12.502h1.22c.096.002.181.006.254.014zM263.644 176.5a.588.588 0 0 1 .35.164c.052.049.109.114.173.194l6.554 8.37a21.55 21.55 0 0 1-.044-.597 9.807 9.807 0 0 1-.017-.545v-7.6h2.049v12.502h-1.193c-.185 0-.339-.03-.462-.091a1.086 1.086 0 0 1-.359-.307l-6.527-8.326a11.51 11.51 0 0 1 .052 1.046v7.678h-2.05v-12.502h1.22c.096.002.181.006.254.014zM278.173 188.99h-2.335v-12.502h2.335v12.502zM282.785 176.5a.588.588 0 0 1 .35.164c.052.049.109.114.173.194l6.554 8.37a21.55 21.55 0 0 1-.044-.597 9.807 9.807 0 0 1-.017-.545v-7.6h2.049v12.502h-1.193c-.185 0-.339-.03-.462-.091a1.086 1.086 0 0 1-.359-.307l-6.527-8.326a11.51 11.51 0 0 1 .052 1.046v7.678h-2.05v-12.502h1.22c.097.002.182.006.254.014zM303.604 188.804a7.961 7.961 0 0 1-2.305.324c-1.02 0-1.943-.159-2.771-.476a6.2 6.2 0 0 1-2.118-1.323 5.788 5.788 0 0 1-1.354-2.023 6.783 6.783 0 0 1-.476-2.567c0-.939.152-1.802.458-2.585a5.818 5.818 0 0 1 1.302-2.023 5.797 5.797 0 0 1 2.045-1.314c.801-.312 1.7-.467 2.697-.467.507 0 .981.04 1.422.121.441.081.851.191 1.229.333.377.141.722.312 1.033.515.311.201.597.423.855.665l-.666 1.055a.637.637 0 0 1-.406.308c-.167.037-.349-.005-.544-.126l-.571-.328a3.647 3.647 0 0 0-.636-.285c-.233-.081-.495-.147-.786-.199s-.627-.078-1.008-.078a4.31 4.31 0 0 0-1.673.312 3.548 3.548 0 0 0-1.275.891 4.014 4.014 0 0 0-.812 1.393 5.451 5.451 0 0 0-.285 1.815c0 .715.103 1.353.307 1.915.205.562.493 1.037.864 1.427.372.389.82.686 1.345.891a4.802 4.802 0 0 0 1.755.307c.462 0 .874-.048 1.237-.143a5.952 5.952 0 0 0 1.063-.394v-2.273h-1.574a.472.472 0 0 1-.35-.126.416.416 0 0 1-.126-.307v-1.314h4.15v5.058a6.665 6.665 0 0 1-2.026 1.021z"/></g></g></switch></svg>