<?xml version="1.0" encoding="UTF-8" standalone="no"?>
<!-- Created with Inkscape (http://www.inkscape.org/) -->

<svg
   xmlns:dc="http://purl.org/dc/elements/1.1/"
   xmlns:cc="http://creativecommons.org/ns#"
   xmlns:rdf="http://www.w3.org/1999/02/22-rdf-syntax-ns#"
   xmlns:svg="http://www.w3.org/2000/svg"
   xmlns="http://www.w3.org/2000/svg"
   xmlns:sodipodi="http://sodipodi.sourceforge.net/DTD/sodipodi-0.dtd"
   xmlns:inkscape="http://www.inkscape.org/namespaces/inkscape"
   id="svg2"
   version="1.1"
   inkscape:version="0.91 r13725"
   xml:space="preserve"
   width="419.39249"
   height="129.705"
   viewBox="0 0 419.39249 129.705"
   sodipodi:docname="snap_acronym_white.svg"><metadata
     id="metadata8"><rdf:RDF><cc:Work
         rdf:about=""><dc:format>image/svg+xml</dc:format><dc:type
           rdf:resource="http://purl.org/dc/dcmitype/StillImage" /><dc:title></dc:title></cc:Work></rdf:RDF></metadata><defs
     id="defs6"><clipPath
       clipPathUnits="userSpaceOnUse"
       id="clipPath16"><path
         d="m 0,103.764 335.514,0 L 335.514,0 0,0 0,103.764 Z"
         id="path18"
         inkscape:connector-curvature="0" /></clipPath></defs><sodipodi:namedview
     pagecolor="#ffffff"
     bordercolor="#666666"
     borderopacity="1"
     objecttolerance="10"
     gridtolerance="10"
     guidetolerance="10"
     inkscape:pageopacity="0"
     inkscape:pageshadow="2"
     inkscape:window-width="640"
     inkscape:window-height="480"
     id="namedview4"
     showgrid="false"
     inkscape:zoom="0.91084131"
     inkscape:cx="209.69624"
     inkscape:cy="64.852501"
     inkscape:window-x="0"
     inkscape:window-y="23"
     inkscape:window-maximized="0"
     inkscape:current-layer="g10" /><g
     id="g10"
     inkscape:groupmode="layer"
     inkscape:label="snap_acronym_white"
     transform="matrix(1.25,0,0,-1.25,0,129.705)"><g
       id="g12"><g
         id="g14"
         clip-path="url(#clipPath16)"><g
           id="g20"
           transform="translate(6.9624,50.2295)"><path
             d="M 0,0 C -0.775,0 -1.564,0.184 -2.299,0.57 -4.731,1.844 -5.666,4.845 -4.394,7.275 L 8.615,32.104 c 0.807,1.542 2.364,2.547 4.099,2.654 1.7,0.101 3.397,-0.702 4.39,-2.133 l 5.106,-7.39 9.108,23.15 c 0.686,1.745 2.299,2.954 4.166,3.128 1.868,0.175 3.67,-0.721 4.666,-2.31 L 50.641,32.452 58.1,40.211 c 1.898,1.976 5.042,2.041 7.023,0.137 1.977,-1.901 2.041,-5.045 0.141,-7.024 L 53.391,20.977 c -1.061,-1.104 -2.569,-1.659 -4.094,-1.498 -1.521,0.157 -2.888,1.007 -3.698,2.304 L 36.958,35.58 28.048,12.928 c -0.671,-1.707 -2.231,-2.905 -4.054,-3.116 -1.818,-0.208 -3.613,0.6 -4.654,2.109 L 13.604,20.217 4.406,2.664 C 3.52,0.97 1.788,0 0,0"
             style="fill:#ffffff;fill-opacity:1;fill-rule:nonzero;stroke:none"
             id="path22"
             inkscape:connector-curvature="0" /></g><g
           id="g24"
           transform="translate(54.9624,37.3711)"><path
             d="m 0,0 c 0,-7.344 -5.951,-13.299 -13.297,-13.299 -7.348,0 -13.3,5.955 -13.3,13.299 0,7.345 5.952,13.3 13.3,13.3 C -5.951,13.3 0,7.345 0,0"
             style="fill:#ffffff;fill-opacity:1;fill-rule:nonzero;stroke:none"
             id="path26"
             inkscape:connector-curvature="0" /></g><g
           id="g28"
           transform="translate(39.5864,2)"><path
             d="m 0,0 c -19.539,0 -35.438,15.895 -35.438,35.434 0,2.744 2.224,4.966 4.97,4.966 2.742,0 4.967,-2.222 4.967,-4.966 0,-14.059 11.439,-25.5 25.501,-25.5 13.85,0 23.293,5.814 28.063,17.275 3.618,8.684 0.42,22.605 -2.236,27.323 -1.348,2.392 -0.499,5.42 1.891,6.768 2.394,1.346 5.421,0.498 6.765,-1.894 4.171,-7.405 7.551,-24.494 2.754,-36.015 C 30.957,8.307 17.733,0 0,0"
             style="fill:#ffffff;fill-opacity:1;fill-rule:nonzero;stroke:none"
             id="path30"
             inkscape:connector-curvature="0" /></g><g
           id="g32"
           transform="translate(156.106,62.4316)"><path
             d="m 0,0 c -0.331,-0.579 -0.683,-1 -1.055,-1.262 -0.372,-0.261 -0.834,-0.392 -1.385,-0.392 -0.579,0 -1.206,0.213 -1.881,0.64 -0.676,0.428 -1.483,0.904 -2.419,1.427 -0.938,0.524 -2.033,0.999 -3.288,1.427 -1.254,0.427 -2.736,0.64 -4.445,0.64 -1.544,0 -2.894,-0.185 -4.052,-0.557 -1.158,-0.372 -2.13,-0.89 -2.915,-1.551 -0.786,-0.662 -1.372,-1.454 -1.758,-2.378 -0.386,-0.924 -0.579,-1.936 -0.579,-3.039 0,-1.406 0.393,-2.578 1.179,-3.515 0.786,-0.937 1.826,-1.737 3.122,-2.398 1.295,-0.662 2.77,-1.255 4.424,-1.778 1.654,-0.524 3.35,-1.082 5.086,-1.675 1.737,-0.593 3.432,-1.281 5.087,-2.068 1.653,-0.785 3.128,-1.778 4.424,-2.977 1.295,-1.199 2.336,-2.667 3.122,-4.403 0.786,-1.738 1.178,-3.846 1.178,-6.328 0,-2.701 -0.462,-5.23 -1.385,-7.587 -0.924,-2.357 -2.274,-4.411 -4.052,-6.162 -1.778,-1.751 -3.949,-3.128 -6.513,-4.134 -2.563,-1.006 -5.499,-1.509 -8.808,-1.509 -1.901,0 -3.776,0.185 -5.623,0.558 -1.847,0.372 -3.618,0.902 -5.314,1.591 -1.695,0.69 -3.287,1.516 -4.776,2.482 -1.488,0.965 -2.812,2.04 -3.969,3.225 l 3.266,5.334 c 0.275,0.386 0.634,0.709 1.076,0.972 0.44,0.262 0.909,0.393 1.405,0.393 0.689,0 1.433,-0.284 2.233,-0.848 0.8,-0.566 1.751,-1.192 2.853,-1.881 1.103,-0.689 2.392,-1.317 3.866,-1.882 1.475,-0.565 3.247,-0.847 5.314,-0.847 3.17,0 5.624,0.751 7.361,2.253 1.736,1.502 2.605,3.66 2.605,6.471 0,1.571 -0.393,2.854 -1.179,3.846 -0.786,0.992 -1.826,1.826 -3.122,2.502 -1.296,0.675 -2.77,1.247 -4.424,1.716 -1.654,0.468 -3.336,0.978 -5.045,1.53 -1.71,0.551 -3.391,1.213 -5.045,1.984 -1.654,0.772 -3.129,1.779 -4.424,3.019 -1.296,1.241 -2.336,2.792 -3.122,4.652 -0.786,1.861 -1.179,4.155 -1.179,6.885 0,2.178 0.434,4.301 1.303,6.368 0.868,2.068 2.129,3.901 3.783,5.5 1.654,1.598 3.694,2.88 6.12,3.845 2.426,0.965 5.21,1.447 8.353,1.447 3.529,0 6.782,-0.552 9.759,-1.653 C -1.861,8.779 0.675,7.236 2.771,5.251 L 0,0 Z"
             style="fill:#ffffff;fill-opacity:1;fill-rule:nonzero;stroke:none"
             id="path34"
             inkscape:connector-curvature="0" /></g><g
           id="g36"
           transform="translate(176.0811,73.2441)"><path
             d="M 0,0 C 0.345,-0.041 0.647,-0.124 0.91,-0.248 1.171,-0.372 1.427,-0.552 1.675,-0.785 1.923,-1.02 2.198,-1.33 2.502,-1.716 l 31.343,-40.027 c -0.082,0.965 -0.151,1.916 -0.207,2.853 -0.055,0.937 -0.082,1.805 -0.082,2.605 l 0,36.347 9.801,0 0,-59.792 -5.707,0 c -0.883,0 -1.619,0.144 -2.213,0.434 -0.592,0.289 -1.164,0.778 -1.715,1.468 l -31.22,39.82 c 0.082,-0.883 0.144,-1.758 0.186,-2.626 0.041,-0.868 0.062,-1.661 0.062,-2.377 l 0,-36.719 -9.8,0 0,59.792 5.83,0 C -0.751,0.062 -0.345,0.042 0,0"
             style="fill:#ffffff;fill-opacity:1;fill-rule:nonzero;stroke:none"
             id="path38"
             inkscape:connector-curvature="0" /></g><g
           id="g40"
           transform="translate(245.9341,36.0908)"><path
             d="m 0,0 19.063,0 -7.278,19.89 c -0.358,0.881 -0.73,1.922 -1.116,3.122 C 10.283,24.211 9.896,25.514 9.512,26.92 9.125,25.514 8.746,24.204 8.374,22.991 8.002,21.777 7.637,20.717 7.278,19.808 L 0,0 Z m 38.705,-22.577 -8.601,0 c -0.965,0 -1.75,0.241 -2.357,0.723 -0.606,0.483 -1.061,1.083 -1.364,1.799 l -4.467,12.199 -24.769,0 -4.465,-12.199 c -0.221,-0.634 -0.649,-1.214 -1.282,-1.736 -0.634,-0.524 -1.421,-0.786 -2.357,-0.786 l -8.684,0 23.529,59.793 11.33,0 23.487,-59.793 z"
             style="fill:#ffffff;fill-opacity:1;fill-rule:nonzero;stroke:none"
             id="path42"
             inkscape:connector-curvature="0" /></g><g
           id="g44"
           transform="translate(301.9634,43.2451)"><path
             d="m 0,0 8.313,0 c 2.039,0 3.817,0.254 5.333,0.765 1.516,0.509 2.778,1.24 3.784,2.191 1.006,0.951 1.757,2.109 2.254,3.474 0.496,1.364 0.744,2.887 0.744,4.569 0,1.599 -0.248,3.046 -0.744,4.342 -0.497,1.295 -1.241,2.398 -2.234,3.307 -0.992,0.911 -2.247,1.606 -3.762,2.089 -1.517,0.482 -3.309,0.724 -5.375,0.724 L 0,21.461 0,0 Z m 0,-8.684 0,-21.047 -11.123,0 0,59.793 19.436,0 c 3.996,0 7.456,-0.469 10.378,-1.407 2.922,-0.937 5.334,-2.247 7.237,-3.927 1.902,-1.682 3.314,-3.695 4.238,-6.038 0.923,-2.343 1.385,-4.907 1.385,-7.691 0,-2.895 -0.483,-5.548 -1.447,-7.96 -0.965,-2.413 -2.413,-4.486 -4.342,-6.224 -1.93,-1.736 -4.349,-3.087 -7.257,-4.051 -2.909,-0.966 -6.306,-1.448 -10.192,-1.448 l -8.313,0 z"
             style="fill:#ffffff;fill-opacity:1;fill-rule:nonzero;stroke:none"
             id="path46"
             inkscape:connector-curvature="0" /></g></g></g></g></svg>