<?xml version="1.0" encoding="UTF-8" standalone="no"?>
<!-- Created with Inkscape (http://www.inkscape.org/) -->

<svg
   xmlns:dc="http://purl.org/dc/elements/1.1/"
   xmlns:cc="http://creativecommons.org/ns#"
   xmlns:rdf="http://www.w3.org/1999/02/22-rdf-syntax-ns#"
   xmlns:svg="http://www.w3.org/2000/svg"
   xmlns="http://www.w3.org/2000/svg"
   xmlns:sodipodi="http://sodipodi.sourceforge.net/DTD/sodipodi-0.dtd"
   xmlns:inkscape="http://www.inkscape.org/namespaces/inkscape"
   id="svg2"
   version="1.1"
   inkscape:version="0.91 r13725"
   xml:space="preserve"
   width="299.16626"
   height="250.83376"
   viewBox="0 0 299.16626 250.83376"
   sodipodi:docname="UAFLogo_A_nofill.svg"><metadata
     id="metadata8"><rdf:RDF><cc:Work
         rdf:about=""><dc:format>image/svg+xml</dc:format><dc:type
           rdf:resource="http://purl.org/dc/dcmitype/StillImage" /><dc:title></dc:title></cc:Work></rdf:RDF></metadata><defs
     id="defs6"><clipPath
       clipPathUnits="userSpaceOnUse"
       id="clipPath16"><path
         d="m 0,200.667 239.333,0 L 239.333,0 0,0 0,200.667 Z"
         id="path18"
         inkscape:connector-curvature="0" /></clipPath></defs><sodipodi:namedview
     pagecolor="#ffffff"
     bordercolor="#666666"
     borderopacity="1"
     objecttolerance="10"
     gridtolerance="10"
     guidetolerance="10"
     inkscape:pageopacity="0"
     inkscape:pageshadow="2"
     inkscape:window-width="640"
     inkscape:window-height="480"
     id="namedview4"
     showgrid="false"
     inkscape:zoom="0.9408622"
     inkscape:cx="149.58313"
     inkscape:cy="125.41688"
     inkscape:window-x="0"
     inkscape:window-y="23"
     inkscape:window-maximized="0"
     inkscape:current-layer="g10" /><g
     id="g10"
     inkscape:groupmode="layer"
     inkscape:label="UAFLogo_A_nofill"
     transform="matrix(1.25,0,0,-1.25,0,250.83375)"><g
       id="g12"><g
         id="g14"
         clip-path="url(#clipPath16)"><g
           id="g20"
           transform="translate(39.7334,84.6382)"><path
             d="m 0,0 0,-8.91 c 0,-2.232 -1.692,-4.014 -4.464,-4.014 -2.124,0 -4.32,1.206 -4.32,4.357 l 0,8.279 2.376,0.288 0,-8.226 c 0,-1.08 0.198,-2.413 2.052,-2.413 1.656,0 1.98,1.135 1.98,2.612 l 0,7.739 L 0,0 Z"
             style="fill:#ffffff;fill-opacity:1;fill-rule:nonzero;stroke:none"
             id="path22"
             inkscape:connector-curvature="0" /></g><g
           id="g24"
           transform="translate(47.0435,71.7144)"><path
             d="m 0,0 0,12.924 0.054,0 7.38,-7.47 0,7.182 L 9.81,12.924 9.81,0 9.756,0 2.376,7.38 2.376,0.288 0,0 Z"
             style="fill:#ffffff;fill-opacity:1;fill-rule:nonzero;stroke:none"
             id="path26"
             inkscape:connector-curvature="0" /></g><g
           id="g28"
           transform="translate(64.2783,71.8589)"><path
             d="m 0,0 0,12.491 2.376,0.288 0,-12.635 L 0,0 Z"
             style="fill:#ffffff;fill-opacity:1;fill-rule:nonzero;stroke:none"
             id="path30"
             inkscape:connector-curvature="0" /></g><g
           id="g32"
           transform="translate(77.8213,76.8804)"><path
             d="m 0,0 3.024,7.758 2.394,-0.288 -5.4,-12.636 -0.036,0 L -5.274,7.47 -2.737,7.758 0,0 Z"
             style="fill:#ffffff;fill-opacity:1;fill-rule:nonzero;stroke:none"
             id="path34"
             inkscape:connector-curvature="0" /></g><g
           id="g36"
           transform="translate(89.0601,72.0024)"><path
             d="m 0,0 0,12.348 6.642,0 0.396,-2.285 -4.662,0 0,-2.467 3.744,0 0,-2.286 -3.744,0 0,-3.024 5.238,0 L 6.858,0 0,0 Z"
             style="fill:#ffffff;fill-opacity:1;fill-rule:nonzero;stroke:none"
             id="path38"
             inkscape:connector-curvature="0" /></g><g
           id="g40"
           transform="translate(105.4834,78.7524)"><path
             d="m 0,0 0.864,0 c 1.17,0 2.304,0.342 2.304,1.729 0,1.421 -1.08,1.584 -2.25,1.584 L 0,3.313 0,0 Z m -2.376,5.598 3.96,0 c 2.376,0 4.248,-1.152 4.248,-3.798 0,-1.529 -0.918,-2.772 -2.376,-3.24 l 3.366,-4.968 -2.592,-0.63 -4.194,6.462 -0.036,0 0,-6.174 -2.376,-0.144 0,12.492 z"
             style="fill:#ffffff;fill-opacity:1;fill-rule:nonzero;stroke:none"
             id="path42"
             inkscape:connector-curvature="0" /></g><g
           id="g44"
           transform="translate(119.0669,75.3325)"><path
             d="m 0,0 c 0.612,-0.684 1.044,-1.333 2.376,-1.333 0.848,0 1.584,0.666 1.584,1.423 0,2.448 -5.381,1.062 -5.381,5.436 0,2.358 1.764,3.78 4.211,3.78 1.226,0 2.719,-0.684 3.456,-1.674 L 4.771,5.904 C 4.194,6.516 3.313,7.02 2.646,7.02 1.818,7.02 1.062,6.66 1.062,5.526 c 0,-2.106 5.382,-0.594 5.382,-5.454 0,-2.25 -1.872,-3.69 -4.194,-3.69 -1.548,0 -2.844,0.648 -3.888,1.926 L 0,0 Z"
             style="fill:#ffffff;fill-opacity:1;fill-rule:nonzero;stroke:none"
             id="path46"
             inkscape:connector-curvature="0" /></g><g
           id="g48"
           transform="translate(132.3306,71.8589)"><path
             d="m 0,0 0,12.491 2.377,0.288 0,-12.635 L 0,0 Z"
             style="fill:#ffffff;fill-opacity:1;fill-rule:nonzero;stroke:none"
             id="path50"
             inkscape:connector-curvature="0" /></g><g
           id="g52"
           transform="translate(141.3179,84.3501)"><path
             d="m 0,0 8.243,0 0,-2.285 -3.077,0 0,-10.063 -2.377,-0.143 0,10.206 -3.365,0 L 0,0 Z"
             style="fill:#ffffff;fill-opacity:1;fill-rule:nonzero;stroke:none"
             id="path54"
             inkscape:connector-curvature="0" /></g><g
           id="g56"
           transform="translate(154.8569,83.9907)"><path
             d="M 0,0 2.304,0.647 5.166,-5.04 7.596,0.647 9.935,0 4.428,-12.276 1.979,-11.772 3.996,-7.561 0,0 Z"
             style="fill:#ffffff;fill-opacity:1;fill-rule:nonzero;stroke:none"
             id="path58"
             inkscape:connector-curvature="0" /></g><g
           id="g60"
           transform="translate(186.2305,74.144)"><path
             d="M 0,0 C 2.195,0 4.031,1.837 4.031,4.032 4.031,6.229 2.195,8.063 0,8.063 -2.196,8.063 -4.032,6.229 -4.032,4.032 -4.032,1.837 -2.196,0 0,0 m 0,10.494 c 3.563,0 6.517,-2.88 6.517,-6.462 C 6.517,0.45 3.563,-2.43 0,-2.43 c -3.564,0 -6.516,2.88 -6.516,6.462 0,3.582 2.952,6.462 6.516,6.462"
             style="fill:#ffffff;fill-opacity:1;fill-rule:nonzero;stroke:none"
             id="path62"
             inkscape:connector-curvature="0" /></g><g
           id="g64"
           transform="translate(199.4512,84.3501)"><path
             d="m 0,0 6.353,0 0.523,-2.285 -4.5,0 0,-2.826 3.33,0 0,-2.286 -3.33,0 0,-4.951 L 0,-12.636 0,0 Z"
             style="fill:#ffffff;fill-opacity:1;fill-rule:nonzero;stroke:none"
             id="path66"
             inkscape:connector-curvature="0" /></g><g
           id="g68"
           transform="translate(40.9351,50.9624)"><path
             d="M 0,0 6.16,0 3,7.44 0,0 Z m -10.84,-10.759 13.8,27.879 0.08,0 14.32,-27.879 -5.64,-0.84 -3.28,6.959 -10.52,0 -3.2,-6.959 -5.56,0.84 z"
             style="fill:#ffffff;fill-opacity:1;fill-rule:nonzero;stroke:none"
             id="path70"
             inkscape:connector-curvature="0" /></g><g
           id="g72"
           transform="translate(66.2871,40.0024)"><path
             d="m 0,0 0,27.44 5.279,0.64 0,-23 10,0 L 13.96,0 0,0 Z"
             style="fill:#ffffff;fill-opacity:1;fill-rule:nonzero;stroke:none"
             id="path74"
             inkscape:connector-curvature="0" /></g><g
           id="g76"
           transform="translate(98.4624,50.9624)"><path
             d="M 0,0 6.16,0 3,7.44 0,0 Z m -10.84,-10.759 13.8,27.879 0.08,0 14.32,-27.879 -5.64,-0.84 -3.28,6.959 -10.52,0 -3.2,-6.959 -5.56,0.84 z"
             style="fill:#ffffff;fill-opacity:1;fill-rule:nonzero;stroke:none"
             id="path78"
             inkscape:connector-curvature="0" /></g><g
           id="g80"
           transform="translate(125.8657,47.4028)"><path
             d="m 0,0 c 1.359,-1.521 2.319,-2.96 5.279,-2.96 1.88,0 3.521,1.48 3.521,3.159 0,5.44 -11.96,2.361 -11.96,12.08 0,5.241 3.92,8.401 9.359,8.401 2.721,0 6.04,-1.521 7.681,-3.72 L 10.6,13.119 C 9.319,14.479 7.359,15.6 5.88,15.6 c -1.841,0 -3.521,-0.8 -3.521,-3.321 0,-4.679 11.96,-1.319 11.96,-12.12 0,-5 -4.16,-8.198 -9.32,-8.198 -3.439,0 -6.319,1.438 -8.64,4.278 L 0,0 Z"
             style="fill:#ffffff;fill-opacity:1;fill-rule:nonzero;stroke:none"
             id="path82"
             inkscape:connector-curvature="0" /></g><g
           id="g84"
           transform="translate(165.2378,68.0825)"><path
             d="m 0,0 5.08,-2.08 -8.88,-11.4 9.199,-13.279 -5.439,-1.96 -9.6,14.799 -0.08,0 0,-14.16 -5.28,-0.32 0,27.76 5.28,0.64 0,-12.72 0.08,0 L 0,0 Z"
             style="fill:#ffffff;fill-opacity:1;fill-rule:nonzero;stroke:none"
             id="path86"
             inkscape:connector-curvature="0" /></g><g
           id="g88"
           transform="translate(187.6221,50.9624)"><path
             d="M 0,0 6.16,0 3,7.44 0,0 Z m -10.839,-10.759 13.798,27.879 0.081,0 14.32,-27.879 -5.641,-0.84 -3.28,6.959 -10.52,0 -3.2,-6.959 -5.558,0.84 z"
             style="fill:#ffffff;fill-opacity:1;fill-rule:nonzero;stroke:none"
             id="path90"
             inkscape:connector-curvature="0" /></g><g
           id="g92"
           transform="translate(30.4902,32.7222)"><path
             d="m 0,0 7.06,0 0.58,-2.54 -5,0 0,-3.139 3.7,0 0,-2.54 -3.7,0 0,-5.5 L 0,-14.04 0,0 Z"
             style="fill:#ffffff;fill-opacity:1;fill-rule:nonzero;stroke:none"
             id="path94"
             inkscape:connector-curvature="0" /></g><g
           id="g96"
           transform="translate(52.0903,24.4844)"><path
             d="M 0,0 3.08,0 1.5,3.72 0,0 Z m -5.42,-5.382 6.9,13.94 0.04,0 7.16,-13.94 -2.82,-0.42 -1.64,3.482 -5.26,0 -1.6,-3.482 -2.78,0.42 z"
             style="fill:#ffffff;fill-opacity:1;fill-rule:nonzero;stroke:none"
             id="path98"
             inkscape:connector-curvature="0" /></g><g
           id="g100"
           transform="translate(71.8042,18.8428)"><path
             d="M 0,0 0,13.879 2.64,14.2 2.64,0.16 0,0 Z"
             style="fill:#ffffff;fill-opacity:1;fill-rule:nonzero;stroke:none"
             id="path102"
             inkscape:connector-curvature="0" /></g><g
           id="g104"
           transform="translate(89.8574,26.5029)"><path
             d="m 0,0 0.96,0 c 1.301,0 2.56,0.38 2.56,1.92 0,1.58 -1.2,1.759 -2.5,1.759 L 0,3.679 0,0 Z m -2.64,6.219 4.401,0 C 4.4,6.219 6.48,4.941 6.48,2 6.48,0.3 5.46,-1.08 3.84,-1.599 L 7.58,-7.12 4.701,-7.82 0.04,-0.639 0,-0.639 0,-7.5 l -2.64,-0.16 0,13.879 z"
             style="fill:#ffffff;fill-opacity:1;fill-rule:nonzero;stroke:none"
             id="path106"
             inkscape:connector-curvature="0" /></g><g
           id="g108"
           transform="translate(111.1982,21.543)"><path
             d="m 0,0 1.38,0 c 1.8,0 2.44,0.541 2.44,1.72 0,1.181 -0.64,1.721 -2.44,1.721 L 0,3.441 0,0 Z m 0,5.56 1.46,0 c 1.04,0 1.76,0.66 1.76,1.54 0,0.88 -0.72,1.539 -1.76,1.539 L 0,8.639 0,5.56 Z m -2.64,5.619 4.72,0 c 3.28,0 4,-2.46 4,-3.759 C 6.08,6.161 5.38,5.121 4.24,4.6 5.74,4.081 6.78,2.901 6.78,1.241 6.78,-0.839 5.16,-2.54 2.54,-2.54 l -5.18,0 0,13.719 z"
             style="fill:#ffffff;fill-opacity:1;fill-rule:nonzero;stroke:none"
             id="path110"
             inkscape:connector-curvature="0" /></g><g
           id="g112"
           transform="translate(133.3022,24.4844)"><path
             d="M 0,0 3.08,0 1.5,3.72 0,0 Z m -5.42,-5.382 6.899,13.94 0.041,0 7.16,-13.94 -2.82,-0.42 -1.64,3.482 -5.26,0 -1.6,-3.482 -2.78,0.42 z"
             style="fill:#ffffff;fill-opacity:1;fill-rule:nonzero;stroke:none"
             id="path114"
             inkscape:connector-curvature="0" /></g><g
           id="g116"
           transform="translate(152.8979,18.6826)"><path
             d="m 0,0 0,14.36 0.061,0 8.199,-8.298 0,7.978 2.639,0.32 0,-14.36 -0.059,0 -8.199,8.2 0,-7.88 L 0,0 Z"
             style="fill:#ffffff;fill-opacity:1;fill-rule:nonzero;stroke:none"
             id="path118"
             inkscape:connector-curvature="0" /></g><g
           id="g120"
           transform="translate(183.9722,33.0425)"><path
             d="m 0,0 2.54,-1.04 -4.438,-5.7 4.598,-6.638 -2.719,-0.982 -4.8,7.402 -0.039,0 0,-7.082 -2.642,-0.16 0,13.88 2.642,0.32 0,-6.36 0.039,0 L 0,0 Z"
             style="fill:#ffffff;fill-opacity:1;fill-rule:nonzero;stroke:none"
             id="path122"
             inkscape:connector-curvature="0" /></g><g
           id="g124"
           transform="translate(198.7314,22.7041)"><path
             d="m 0,0 c 0.68,-0.76 1.159,-1.481 2.64,-1.481 0.94,0 1.758,0.74 1.758,1.58 0,2.72 -5.978,1.181 -5.978,6.04 0,2.619 1.96,4.199 4.68,4.199 1.36,0 3.019,-0.758 3.838,-1.86 L 5.3,6.559 C 4.659,7.24 3.68,7.798 2.938,7.798 2.019,7.798 1.18,7.398 1.18,6.139 c 0,-2.34 5.979,-0.66 5.979,-6.059 0,-2.5 -2.079,-4.101 -4.659,-4.101 -1.722,0 -3.16,0.721 -4.32,2.141 L 0,0 Z"
             style="fill:#ffffff;fill-opacity:1;fill-rule:nonzero;stroke:none"
             id="path126"
             inkscape:connector-curvature="0" /></g><g
           id="g128"
           transform="translate(177.1255,93.2759)"><path
             d="m 0,0 -15.306,0 -14.659,47.243 0.002,41.757 61.69,0 0,-19.731 -31.506,0 0,-7.8 24.147,0 0,-19.917 L 0,41.552 0,0 Z"
             style="fill:none;stroke:#ffffff;stroke-width:2;stroke-linecap:butt;stroke-linejoin:miter;stroke-miterlimit:3.86400008;stroke-dasharray:none;stroke-opacity:1"
             id="path130"
             inkscape:connector-curvature="0" /></g><g
           id="g132"
           transform="translate(55.3555,182.3657)"><path
             d="m 0,0 0.005,-58.768 c 0,0 -0.298,-3.908 2.977,-3.912 3.644,-0.004 3.305,3.891 3.305,3.891 L 6.258,0 l 27.571,0 0,-39.937 L 17.204,-89 l 2.199,0 c -3.773,-0.65 -8.527,-1.055 -14.514,-1.055 -31.228,0 -32.85,10.168 -32.85,10.168 L -27.961,0 0,0 Z"
             style="fill:none;stroke:#ffffff;stroke-width:2;stroke-linecap:butt;stroke-linejoin:miter;stroke-miterlimit:3.86400008;stroke-dasharray:none;stroke-opacity:1"
             id="path134"
             inkscape:connector-curvature="0" /></g><g
           id="g136"
           transform="translate(72.6655,93.3013)"><path
             d="m 0,0 88.861,-0.012 -27.708,88.978 -31.161,0 L 0,0 Z"
             style="fill:none;stroke:#ffffff;stroke-width:2;stroke-linecap:butt;stroke-linejoin:miter;stroke-miterlimit:3.86400008;stroke-dasharray:none;stroke-opacity:1"
             id="path138"
             inkscape:connector-curvature="0" /></g><g
           id="g140"
           transform="translate(126.7466,100.9155)"><path
             d="M 0,0 2.015,3.885 1.148,8.096 -3.875,10.19 C -4.467,7.315 -5.385,4.401 -6.62,1.151 L -9.261,0.885 c 2.975,6.938 4.229,13.763 3.794,20.485 l 2.301,-0.357 c 0.195,-3.037 0.095,-5.786 -0.301,-8.499 L 3.169,9.749 5.447,-1.792 0,0 Z m 16.565,-2.552 13.243,0 -0.789,2.524 -11.993,0 c 0.213,1.228 0.441,2.638 0.656,4.157 l 10.034,0 -0.791,2.526 -8.911,0 c 0.163,1.349 0.304,2.748 0.415,4.154 l 7.194,0 -0.789,2.524 -6.248,0 c 0.227,5.039 -0.109,9.84 -1.747,12.43 -5.625,8.892 -18.089,11.909 -24.396,13.968 l -0.734,-2.593 -2.296,0.859 0.729,2.584 c 1,2.937 0.375,5.186 6.746,4.623 0.545,0.527 2.086,3.571 1.75,4.248 -1.765,0.9 -6.062,1.874 -6.062,1.874 0,0 -0.912,1.278 -2.061,1.75 -2.532,1.039 -5.242,1.221 -8.073,0.104 -0.287,0.165 -1.439,0.648 -2.411,0.18 -1.566,-0.755 -1.264,-2 -1.26,-2.051 -0.307,-0.247 -0.367,-0.376 -0.622,-0.651 -1.831,-1.974 -3.086,-4.106 -4.145,-6.562 -0.195,-0.456 -2.443,-4.962 -3.316,-8.359 -1.721,-6.707 -1.765,-12.06 0,-17.754 0.506,-1.63 0.723,-3.198 0.953,-4.736 l -15.387,0 -0.864,-2.524 16.699,0 c 0.31,-1.389 0.771,-2.767 1.618,-4.158 l -19.741,0 -0.864,-2.523 22.518,0 c 0.847,-1 1.847,-2.126 2.68,-3.049 2.054,0.978 3.363,2.662 4.119,5.007 l -1.344,10.047 -1.502,0.969 1.874,2.03 1.79,-1.462 1.53,-11.779 c -0.758,-2.534 -1.739,-4.38 -3.275,-5.669 l -29.728,0 -0.864,-2.524 25.068,0 -13.465,-5.099 60.219,0 -6.603,2.737 c 0,0 0.182,0.82 0.446,2.198"
             style="fill:#ffffff;fill-opacity:1;fill-rule:evenodd;stroke:none"
             id="path142"
             inkscape:connector-curvature="0" /></g><g
           id="g144"
           transform="translate(184.4668,99.2124)"><path
             d="m 0,0 1.403,0 0,-4.251 0.991,0.061 0,4.19 1.28,0 0,0.952 -3.434,0 L 0,0 Z"
             style="fill:#ffffff;fill-opacity:1;fill-rule:nonzero;stroke:none"
             id="path146"
             inkscape:connector-curvature="0" /></g><g
           id="g148"
           transform="translate(189.2373,94.9028)"><path
             d="m 0,0 0.389,2.615 0.016,0 L 1.687,0 l 0.015,0 1.26,2.615 0.014,0 L 3.388,0 4.362,0.119 3.381,5.382 3.366,5.382 1.694,1.934 0.022,5.382 0.009,5.382 -0.951,0.119 0,0 Z"
             style="fill:#ffffff;fill-opacity:1;fill-rule:nonzero;stroke:none"
             id="path150"
             inkscape:connector-curvature="0" /></g></g></g></g></svg>